<svg id="land" width="1217" height="1883" viewBox="0 0 1217 1883" fill="none"
xmlns="http://www.w3.org/2000/svg" xmlns:xlink="http://www.w3.org/1999/xlink">
    <g>
        <path d="M600 977L606 839.5L612.5 977L627 959L616 986L648 990.5L617.5 997L628.5 1017L612.5 1003C612.5 1003 610.5 1040 614 1040C617.5 1040 632.5 1025.5 632.5 1025.5C632.5 1025.5 645.008 1011.97 650 1001.5C653.535 994.087 655.53 989.655 656.5 981.5C657.354 974.315 656.929 970.093 655.5 963C654.221 956.654 652.709 953.196 650.159 947.365L650 947C647.796 941.959 643.5 934.5 643.5 934.5C643.5 934.5 647.73 927.632 650 923C651.963 918.994 654.5 912.5 654.5 912.5L661.5 896C661.5 896 662.669 891.161 663 888C663.756 880.791 663.25 876.534 661.5 869.5C659.81 862.708 658.222 858.928 654.5 853C651.695 848.532 646 840.5 646 840.5C646 840.5 652.661 842.455 655.5 844C658.973 845.89 660.765 847.227 664 849.5C667.419 851.902 669.486 853.105 672.5 856C675.097 858.494 676.268 860.175 678.5 863C681.891 867.293 683.715 869.791 686.5 874.5C689.168 879.01 690.745 881.563 692.5 886.5C694.373 891.769 694.679 894.969 695.5 900.5C696.048 904.19 696.282 906.276 696.5 910L696.523 910.391C696.783 914.83 696.938 917.467 696.5 922C695.963 927.566 694.963 930.603 693.5 936L693.38 936.443C692.274 940.523 691.615 942.958 690 947C688.057 951.866 684 959 684 959C684 959 689.044 953.219 691.5 949C693.346 945.829 693.938 943.819 695.5 940.5C697.062 937.181 697.713 935.12 698.5 931.5C699.21 928.234 699.264 926.334 699.5 923C699.858 917.936 699.966 915.055 699.5 910C699.247 907.25 699.02 905.712 698.5 903C697.893 899.837 697.629 898.116 697 895C696.447 892.259 695.5 888 695.5 888C695.5 888 697.467 889.705 698.5 891C698.5 891 700.825 896.247 702.5 900.5C704.175 904.753 706.5 911.5 706.5 911.5C706.5 911.5 709.423 918.989 710.5 924C711.656 929.376 711.825 932.504 712 938C712.075 940.342 712.104 941.659 712 944C711.8 948.525 711.495 951.082 710.5 955.5C709.415 960.319 708.259 962.884 706.5 967.5C705.067 971.262 704.382 973.442 702.5 977C701.106 979.635 699.933 980.887 698.5 983.5C696.736 986.717 694.5 992 694.5 992C694.5 992 697.699 988.462 699.5 986C700.747 984.295 701.328 983.257 702.5 981.5C703.672 979.743 704.438 978.826 705.5 977C706.598 975.113 707.003 973.942 708 972C709.515 969.047 712 964.5 712 964.5C712 964.5 710.456 972.196 709 977C706.991 983.628 705.762 987.391 702.5 993.5C700.452 997.336 699.036 999.365 696.567 1002.9L696.5 1003C694.109 1006.43 692.701 1008.31 690 1011.5C687.41 1014.56 685.928 1016.27 683 1019C680.058 1021.75 678.25 1023.12 675 1025.5C670.89 1028.51 668.392 1029.92 664 1032.5C662.642 1033.3 661.88 1033.74 660.5 1034.5C656.135 1036.89 653.616 1038.14 649 1040C644.419 1041.85 641.771 1042.72 637 1044C630.86 1045.65 627.265 1045.92 621 1047C618.659 1047.4 617.358 1047.71 615 1048C608.603 1048.78 604.905 1048.7 598.5 1048C595.947 1047.72 594.532 1047.43 592 1047C586.299 1046.03 583.057 1045.6 577.5 1044C572.191 1042.47 569.278 1041.24 564.266 1039.11L564 1039C558.612 1036.72 555.634 1035.31 550.5 1032.5C545.887 1029.98 543.369 1028.42 539 1025.5C535.397 1023.09 533.296 1021.82 530 1019C526.851 1016.31 525.229 1014.62 522.5 1011.5C519.746 1008.36 518.391 1006.43 516 1003C513.489 999.401 512.107 997.349 510 993.5C508.029 989.899 506.953 987.839 505.5 984C503.99 980.012 503.484 977.65 502.5 973.5C501.537 969.438 500.5 963 500.5 963C500.5 963 502.64 967.568 504 970.5C505.177 973.036 505.668 974.542 507 977C508.548 979.857 509.336 981.575 511.5 984C513.531 986.276 517.5 989 517.5 989C517.5 989 513.707 983.911 511.5 980.5C509.644 977.632 508.58 976.028 507 973L506.864 972.74C505.653 970.421 504.928 969.032 504 966.5C502.484 962.364 502.215 959.847 501.5 955.5C500.958 952.202 500.701 950.336 500.5 947C500.289 943.492 500.335 941.511 500.5 938C500.685 934.08 500.858 931.872 501.5 928C502.189 923.842 502.833 921.55 504 917.5C505.026 913.94 505.76 911.991 507 908.5C508.117 905.356 508.746 903.592 510 900.5C511.282 897.34 511.95 895.537 513.5 892.5C515.05 889.463 516 888 516 888C516 888 515.355 890.429 515 892C514.257 895.288 514.203 896.729 513.5 900.5C512.923 903.595 512.721 905.359 512.5 908.5C512.215 912.549 512.317 914.856 512.494 918.875L512.5 919C512.691 923.309 512.647 925.772 513.5 930C514.184 933.392 514.853 935.236 516 938.5C517.479 942.709 518.11 945.233 520.5 949C523.386 953.548 530 959 530 959C530 959 527.069 955.473 525.5 953C523.066 949.165 520.5 942.5 520.5 942.5C520.5 942.5 518.366 937.722 517.5 934.5C516.634 931.278 516.323 926.6 516 921.5C515.605 915.264 515.229 911.701 516 905.5C516.643 900.33 517.608 897.521 519 892.5C520.204 888.156 520.845 885.693 522.5 881.5C524.168 877.276 525.323 875.583 527.5 872C530.117 867.694 532.071 865.21 535 861.5C537.929 857.79 539.976 856.101 543.5 853C546.843 850.059 548.807 848.488 552.5 846C555.333 844.092 556.756 843.07 560 842C562.439 841.195 566.5 840.5 566.5 840.5C566.5 840.5 560.14 848.288 557 853C553.193 858.713 552.195 862.711 550.544 869.325L550.5 869.5C548.739 876.55 548.991 880.783 549.5 888C549.721 891.141 549.916 892.906 550.5 896C551.679 902.25 553.098 905.611 555.5 911.5C557.38 916.11 558.572 918.654 561 923C563.615 927.681 568.5 934.5 568.5 934.5C568.5 934.5 564.137 941.93 562 947C559.458 953.032 558.285 956.581 557 963C555.577 970.107 554.746 974.291 555.5 981.5C556.354 989.668 558.461 994.089 562 1001.5C566.529 1010.98 570.261 1015.88 577.5 1023.5C584.684 1031.06 595 1040 598.5 1040C602 1040 600 1003 600 1003L583.5 1017L595 997L563.5 990.5L595 986L585 959L600 977Z" fill="#4DE9D0" stroke="#4DE9D0"/>
    </g>
</svg>