<svg width="176" height="167" viewBox="0 0 176 167" fill="none" xmlns="http://www.w3.org/2000/svg">
    <circle cx="89" cy="84" r="57.5" stroke="#00FFB3"/>
    <circle cx="88.5" cy="83.5" r="64" stroke="#00FFB3"/>
    <circle cx="88.5" cy="83.5" r="67" stroke="#00FFB3"/>
    <path d="M56.5 17.5C40 26 29 40 29 40M29 40C27.0474 43.5147 24 49 24 49L5 58L12.5 44.5C12.5 44.5 22 44.5 29 40Z" stroke="#00FFB3" stroke-width="3"/>
    <path d="M120.5 17.5C137 26 148 40 148 40M148 40C149.953 43.5147 153 49 153 49L172 58L164.5 44.5C164.5 44.5 155 44.5 148 40Z" stroke="#00FFB3" stroke-width="3"/>
    <path d="M120.5 150C137 141.5 148 127.5 148 127.5M148 127.5C149.953 123.985 153 118.5 153 118.5L172 109.5L164.5 123C164.5 123 155 123 148 127.5Z" stroke="#00FFB3" stroke-width="3"/>
    <path d="M56.5 150C40 141.5 29 127.5 29 127.5M29 127.5C27.0474 123.985 24 118.5 24 118.5L5 109.5L12.5 123C12.5 123 22 123 29 127.5Z" stroke="#00FFB3" stroke-width="3"/>
    <path d="M80.5 12.5C87.462 11.5286 91.5668 11.3409 98.5 12.5C101.069 12.9296 105 14 105 14L99.5 9.5H95V6.5C95 6.5 101.73 10.7956 106.5 12.5C110.648 13.9822 117.5 15 117.5 15L98.5 6.5H105C105 6.5 97.7908 3.70385 93 2.5C91.254 2.06127 88.5 1.5 88.5 1.5C88.5 1.5 85.7454 2.05915 84 2.5C78.7912 3.81562 71 7 71 7L78.5 6.5L61 15C61 15 67.9078 14.1311 72 12.5C76.2306 10.8137 82 6.5 82 6.5V9.5H78.5L73 14C73 14 77.5417 12.9128 80.5 12.5Z" stroke="#00FFB3"/>
    <circle cx="88.5" cy="6.60156" r="5" stroke="#00FFB3"/>
    <circle cx="88.5" cy="6.5" r="3" stroke="#00FFB3"/>
    <path d="M80.5 154.599C87.462 155.571 91.5668 155.758 98.5 154.599C101.069 154.169 105 153.098 105 153.098L99.5 157.6H95V160.6C95 160.6 101.73 156.304 106.5 154.599C110.648 153.116 117.5 152.098 117.5 152.098L98.5 160.6H105C105 160.6 97.7908 163.397 93 164.601C91.254 165.04 88.5 165.602 88.5 165.602C88.5 165.602 85.7454 165.042 84 164.601C78.7912 163.285 71 160.1 71 160.1L78.5 160.6L61 152.098C61 152.098 67.9078 152.967 72 154.599C76.2306 156.286 82 160.6 82 160.6V157.6H78.5L73 153.098C73 153.098 77.5417 154.186 80.5 154.599Z" stroke="#00FFB3"/>
    <path d="M93.5 160.499C93.5 157.736 91.2613 155.497 88.5 155.497C85.7387 155.497 83.5 157.736 83.5 160.499C83.5 163.261 85.7387 165.5 88.5 165.5C91.2613 165.5 93.5 163.261 93.5 160.499Z" stroke="#00FFB3"/>
    <path d="M91.5 160.601C91.5 158.943 90.1567 157.6 88.5 157.6C86.8433 157.6 85.5 158.943 85.5 160.601C85.5 162.258 86.8433 163.602 88.5 163.602C90.1567 163.602 91.5 162.258 91.5 160.601Z" stroke="#00FFB3"/>
    <path d="M19.0311 62L19.2556 62.691H19.9822L19.3944 63.118L19.6189 63.809L18.5312 65L18.4433 63.809L18.0312 63L18.0801 62.691L18.5312 62.5L19.0311 62Z" fill="#00FFB2"/>
    <path d="M18.0311 80L18.2556 80.691H18.9822L18.3944 81.118L18.6189 81.809L17.5312 83L17.4433 81.809L17.0312 81L17.0801 80.691L17.5312 80.5L18.0311 80Z" fill="#00FFB2"/>
    <path d="M19.0311 94L19.2556 94.691H19.9822L19.3944 95.118L19.6189 95.809L18.5312 97L18.4433 95.809L18.0312 95L18.0801 94.691L18.5312 94.5L19.0311 94Z" fill="#00FFB2"/>
    <path d="M17.0311 71L17.2556 71.691H17.9822L17.3944 72.118L17.6189 72.809L16.5312 74L16.4433 72.809L16.0312 72L16.0801 71.691L16.5312 71.5L17.0311 71Z" fill="#00FFB2"/>
    <path d="M18.0312 68L18.9482 68.5535L19.9334 69.0365L19.5149 69.8615L19.2068 70.7135L18.0312 70.67L16.8557 70.7135L16.5476 69.8615L16.1291 69.0365L17.1143 68.5535L18.0312 68Z" fill="#00FFB2"/>
    <path d="M16 86L16.9169 86.5535L17.9021 87.0365L17.4836 87.8615L17.1756 88.7135L16 88.67L14.8244 88.7135L14.5164 87.8615L14.0979 87.0365L15.0831 86.5535L16 86Z" fill="#00FFB2"/>
    <path d="M17.8774 99.2827L18.2976 100.268L18.8144 101.236L17.9925 101.66L17.2444 102.171L16.3162 101.449L15.3371 100.797L15.5853 99.9254L15.7283 99.0113L16.8099 99.1955L17.8774 99.2827Z" fill="#00FFB2"/>
    <path d="M22 107L22.9169 107.553L23.9021 108.036L23.4836 108.862L23.1756 109.714L22 109.67L20.8244 109.714L20.5164 108.862L20.0979 108.036L21.0831 107.553L22 107Z" fill="#00FFB2"/>
    <path d="M16.0312 77L16.9482 77.5535L17.9334 78.0365L17.5149 78.8615L17.2068 79.7135L16.0312 79.67L14.8557 79.7135L14.5476 78.8615L14.1291 78.0365L15.1143 77.5535L16.0312 77Z" fill="#00FFB2"/>
    <path d="M18.5 91L19.1877 91.369L19.9266 91.691L19.6127 92.241L19.3817 92.809L18.5 92.78L17.6183 92.809L17.3873 92.241L17.0734 91.691L17.8123 91.369L18.5 91Z" fill="#00FFB2"/>
    <path d="M14.9021 70L15.8047 70.5L16.8042 71.0365L15.6287 71.6771L16.0777 72.7135L15.0312 72.5L13.7266 72.7135L13.3047 71.8496L13 71.0365L13.3047 70H14.9021Z" fill="#00FFB2"/>
    <path d="M9.5 85.5017C10.1667 84.6684 11.9 83.1017 13.5 83.5017C14.5 87.5011 17.2 96.3 20 99.5C18.8333 95.6667 16.5 87.2 16.5 84C16.1667 79.8333 16.4 70.4 20 66C18.1667 68 14.6 73.5 15 79.5L12 80.5L9.5 81C9.16667 81 8.2 80.4 7 78C5.83333 79.6667 2.9 83.7 0.5 86.5C1.5 85.8333 4.1 84 6.5 82C7 82.3333 8.3 83.5003 9.5 85.5017Z" fill="url(#paint0_linear_601_263)"/>
    <path d="M21 65L21.4745 65.1843L22 65.382L21.382 65.618L21.618 66L21.0679 65.9213L20.382 66L20.1602 65.6816L20 65.382L20.1602 65H21Z" fill="#00FFB2"/>
    <path d="M15 75L15.4745 75.3685L16 75.7639L15.382 76.2361L15.618 77L15.0679 76.8426L14.382 77L14.1602 76.3633L14 75.7639L14.1602 75H15Z" fill="#00FFB2"/>
    <path d="M16 90L16.4745 90.3685L17 90.7639L16.382 91.2361L16.618 92L16.0679 91.8426L15.382 92L15.1602 91.3633L15 90.7639L15.1602 90H16Z" fill="#00FFB2"/>
    <path d="M20 101L20.4745 101.369L21 101.764L20.382 102.236L20.618 103L20.0679 102.843L19.382 103L19.1602 102.363L19 101.764L19.1602 101H20Z" fill="#00FFB2"/>
    <path d="M13.9021 80L14.8047 80.5L15.8042 81.0365L14.6287 81.6771L15.0777 82.7135L14.0312 82.5L12.7266 82.7135L12.3047 81.8496L12 81.0365L12.3047 80H13.9021Z" fill="#00FFB2"/>
    <path d="M18.031 74L18.48 75.0365H19.9331L19.3082 76.7135H19.2066L17.3045 75.6771L16.1289 75.0365H18.031V74Z" fill="#00FFB2"/>
    <path d="M17.2306 89.4519L18.3114 89.7801L19.2515 88.6721L20.126 90.2336L20.0603 90.3111L18.0393 91.0909L16.7903 91.5729L18.0209 90.1225L17.2306 89.4519Z" fill="#00FFB2"/>
    <path d="M17.031 92L17.48 93.0365H18.9331L18.3082 94.7135H18.2066L16.3045 93.6771L15.1289 93.0365H17.031V92Z" fill="#00FFB2"/>
    <path d="M19.9021 104L20.3511 105.036H21.8042L21.1793 106.714H21.0777L19.1756 105.677L18 105.036H19.9021V104Z" fill="#00FFB2"/>
    <path d="M16.031 83L16.48 84.0365H17.9331L17.3082 85.7135H17.2066L15.3045 84.6771L14.1289 84.0365H16.031V83Z" fill="#00FFB2"/>
    <path d="M18.67 96.2362L18.4539 97.3449L19.6521 98.167L18.1881 99.1964L18.1043 99.1388L17.1222 97.2081L16.5152 96.0148L18.0837 97.0909L18.67 96.2362Z" fill="#00FFB2"/>
    <path d="M157.469 62L157.244 62.691H156.518L157.106 63.118L156.881 63.809L157.969 65L158.057 63.809L158.469 63L158.42 62.691L157.969 62.5L157.469 62Z" fill="#00FFB2"/>
    <path d="M158.469 80L158.244 80.691H157.518L158.106 81.118L157.881 81.809L158.969 83L159.057 81.809L159.469 81L159.42 80.691L158.969 80.5L158.469 80Z" fill="#00FFB2"/>
    <path d="M157.469 94L157.244 94.691H156.518L157.106 95.118L156.881 95.809L157.969 97L158.057 95.809L158.469 95L158.42 94.691L157.969 94.5L157.469 94Z" fill="#00FFB2"/>
    <path d="M159.469 71L159.244 71.691H158.518L159.106 72.118L158.881 72.809L159.969 74L160.057 72.809L160.469 72L160.42 71.691L159.969 71.5L159.469 71Z" fill="#00FFB2"/>
    <path d="M158.469 68L157.552 68.5535L156.567 69.0365L156.985 69.8615L157.293 70.7135L158.469 70.67L159.644 70.7135L159.952 69.8615L160.371 69.0365L159.386 68.5535L158.469 68Z" fill="#00FFB2"/>
    <path d="M160.5 86L159.583 86.5535L158.598 87.0365L159.016 87.8615L159.324 88.7135L160.5 88.67L161.676 88.7135L161.984 87.8615L162.402 87.0365L161.417 86.5535L160.5 86Z" fill="#00FFB2"/>
    <path d="M158.623 99.2827L158.202 100.268L157.686 101.236L158.508 101.66L159.256 102.171L160.184 101.449L161.163 100.797L160.915 99.9254L160.772 99.0113L159.69 99.1955L158.623 99.2827Z" fill="#00FFB2"/>
    <path d="M154.5 107L153.583 107.553L152.598 108.036L153.016 108.862L153.324 109.714L154.5 109.67L155.676 109.714L155.984 108.862L156.402 108.036L155.417 107.553L154.5 107Z" fill="#00FFB2"/>
    <path d="M160.469 77L159.552 77.5535L158.567 78.0365L158.985 78.8615L159.293 79.7135L160.469 79.67L161.644 79.7135L161.952 78.8615L162.371 78.0365L161.386 77.5535L160.469 77Z" fill="#00FFB2"/>
    <path d="M158 91L157.312 91.369L156.573 91.691L156.887 92.241L157.118 92.809L158 92.78L158.882 92.809L159.113 92.241L159.427 91.691L158.688 91.369L158 91Z" fill="#00FFB2"/>
    <path d="M161.598 70L160.695 70.5L159.696 71.0365L160.871 71.6771L160.422 72.7135L161.469 72.5L162.773 72.7135L163.195 71.8496L163.5 71.0365L163.195 70H161.598Z" fill="#00FFB2"/>
    <path d="M167 85.5017C166.333 84.6684 164.6 83.1017 163 83.5017C162 87.5011 159.3 96.3 156.5 99.5C157.667 95.6667 160 87.2 160 84C160.333 79.8333 160.1 70.4 156.5 66C158.333 68 161.9 73.5 161.5 79.5L164.5 80.5L167 81C167.333 81 168.3 80.4 169.5 78C170.667 79.6667 173.6 83.7 176 86.5C175 85.8333 172.4 84 170 82C169.5 82.3333 168.2 83.5003 167 85.5017Z" fill="url(#paint1_linear_601_263)"/>
    <path d="M155.5 65L155.025 65.1843L154.5 65.382L155.118 65.618L154.882 66L155.432 65.9213L156.118 66L156.34 65.6816L156.5 65.382L156.34 65H155.5Z" fill="#00FFB2"/>
    <path d="M161.5 75L161.025 75.3685L160.5 75.7639L161.118 76.2361L160.882 77L161.432 76.8426L162.118 77L162.34 76.3633L162.5 75.7639L162.34 75H161.5Z" fill="#00FFB2"/>
    <path d="M160.5 90L160.025 90.3685L159.5 90.7639L160.118 91.2361L159.882 92L160.432 91.8426L161.118 92L161.34 91.3633L161.5 90.7639L161.34 90H160.5Z" fill="#00FFB2"/>
    <path d="M156.499 101L156.025 101.369L155.499 101.764L156.117 102.236L155.881 103L156.431 102.843L157.117 103L157.339 102.363L157.499 101.764L157.339 101H156.499Z" fill="#00FFB2"/>
    <path d="M162.598 80L161.695 80.5L160.696 81.0365L161.871 81.6771L161.422 82.7135L162.469 82.5L163.773 82.7135L164.195 81.8496L164.5 81.0365L164.195 80H162.598Z" fill="#00FFB2"/>
    <path d="M158.469 74L158.02 75.0365H156.567L157.192 76.7135H157.293L159.196 75.6771L160.371 75.0365H158.469V74Z" fill="#00FFB2"/>
    <path d="M159.269 89.4519L158.189 89.7801L157.248 88.6721L156.374 90.2336L156.44 90.3111L158.461 91.0909L159.71 91.5729L158.479 90.1225L159.269 89.4519Z" fill="#00FFB2"/>
    <path d="M159.469 92L159.02 93.0365H157.567L158.192 94.7135H158.293L160.196 93.6771L161.371 93.0365H159.469V92Z" fill="#00FFB2"/>
    <path d="M156.598 104L156.149 105.036H154.696L155.321 106.714H155.422L157.324 105.677L158.5 105.036H156.598V104Z" fill="#00FFB2"/>
    <path d="M160.47 83L160.021 84.0365H158.568L159.193 85.7135H159.294L161.196 84.6771L162.372 84.0365H160.47V83Z" fill="#00FFB2"/>
    <path d="M157.83 96.2362L158.046 97.3449L156.848 98.167L158.312 99.1964L158.396 99.1388L159.378 97.2081L159.985 96.0148L158.416 97.0909L157.83 96.2362Z" fill="#00FFB2"/>
    <defs>
    <linearGradient id="paint0_linear_601_263" x1="2" y1="84.5" x2="18.5" y2="82.5" gradientUnits="userSpaceOnUse">
    <stop stop-color="#00FFB2"/>
    <stop offset="1" stop-color="#00FFB2" stop-opacity="0.65"/>
    </linearGradient>
    <linearGradient id="paint1_linear_601_263" x1="174.5" y1="84.5" x2="158" y2="82.5" gradientUnits="userSpaceOnUse">
    <stop stop-color="#00FFB2"/>
    <stop offset="1" stop-color="#00FFB2" stop-opacity="0.65"/>
    </linearGradient>
    </defs>
</svg>