<svg width="32" height="32" viewBox="0 0 32 32" fill="none" xmlns="http://www.w3.org/2000/svg">
<path fill-rule="evenodd" clip-rule="evenodd" d="M9.15527e-05 16C9.15527e-05 7.16344 7.16354 0 16.0001 0C24.8366 0 32.0001 7.16344 32.0001 16C32.0001 24.8366 24.8366 32 16.0001 32C7.16354 32 9.15527e-05 24.8366 9.15527e-05 16ZM8.20009 13.3V24H11.6001V13.3H8.20009ZM8.00009 9.9C8.00009 11 8.80009 11.8 9.90009 11.8C11.0001 11.8 11.8001 11 11.8001 9.9C11.8001 8.8 11.0001 8 9.90009 8C8.90009 8 8.00009 8.8 8.00009 9.9ZM20.6001 24H23.8001V17.4C23.8001 14.1 21.8001 13 19.9001 13C18.2001 13 17.0001 14.1 16.7001 14.8V13.3H13.5001V24H16.9001V18.3C16.9001 16.8 17.9001 16 18.9001 16C19.9001 16 20.6001 16.5 20.6001 18.2V24Z" fill="#C0B7E8"/>
</svg>
