<svg width="154" height="49" viewBox="0 0 154 49" fill="none" xmlns="http://www.w3.org/2000/svg">
<rect x="3.05176e-05" width="154" height="49" rx="24.5" fill="url(#paint0_linear_280_40)"/>
<path d="M22.036 29.096C21.484 29.096 20.952 29.032 20.44 28.904C19.936 28.768 19.536 28.6 19.24 28.4L19.864 27.056C20.16 27.24 20.508 27.392 20.908 27.512C21.316 27.624 21.716 27.68 22.108 27.68C22.54 27.68 22.844 27.628 23.02 27.524C23.204 27.42 23.296 27.276 23.296 27.092C23.296 26.94 23.224 26.828 23.08 26.756C22.944 26.676 22.76 26.616 22.528 26.576C22.296 26.536 22.04 26.496 21.76 26.456C21.488 26.416 21.212 26.364 20.932 26.3C20.652 26.228 20.396 26.124 20.164 25.988C19.932 25.852 19.744 25.668 19.6 25.436C19.464 25.204 19.396 24.904 19.396 24.536C19.396 24.128 19.512 23.768 19.744 23.456C19.984 23.144 20.328 22.9 20.776 22.724C21.224 22.54 21.76 22.448 22.384 22.448C22.824 22.448 23.272 22.496 23.728 22.592C24.184 22.688 24.564 22.828 24.868 23.012L24.244 24.344C23.932 24.16 23.616 24.036 23.296 23.972C22.984 23.9 22.68 23.864 22.384 23.864C21.968 23.864 21.664 23.92 21.472 24.032C21.28 24.144 21.184 24.288 21.184 24.464C21.184 24.624 21.252 24.744 21.388 24.824C21.532 24.904 21.72 24.968 21.952 25.016C22.184 25.064 22.436 25.108 22.708 25.148C22.988 25.18 23.268 25.232 23.548 25.304C23.828 25.376 24.08 25.48 24.304 25.616C24.536 25.744 24.724 25.924 24.868 26.156C25.012 26.38 25.084 26.676 25.084 27.044C25.084 27.444 24.964 27.8 24.724 28.112C24.484 28.416 24.136 28.656 23.68 28.832C23.232 29.008 22.684 29.096 22.036 29.096ZM29.311 29.096C28.623 29.096 28.011 28.952 27.475 28.664C26.947 28.376 26.527 27.984 26.215 27.488C25.911 26.984 25.759 26.412 25.759 25.772C25.759 25.124 25.911 24.552 26.215 24.056C26.527 23.552 26.947 23.16 27.475 22.88C28.011 22.592 28.623 22.448 29.311 22.448C29.991 22.448 30.599 22.592 31.135 22.88C31.671 23.16 32.091 23.548 32.395 24.044C32.699 24.54 32.851 25.116 32.851 25.772C32.851 26.412 32.699 26.984 32.395 27.488C32.091 27.984 31.671 28.376 31.135 28.664C30.599 28.952 29.991 29.096 29.311 29.096ZM29.311 27.56C29.623 27.56 29.903 27.488 30.151 27.344C30.399 27.2 30.595 26.996 30.739 26.732C30.883 26.46 30.955 26.14 30.955 25.772C30.955 25.396 30.883 25.076 30.739 24.812C30.595 24.548 30.399 24.344 30.151 24.2C29.903 24.056 29.623 23.984 29.311 23.984C28.999 23.984 28.719 24.056 28.471 24.2C28.223 24.344 28.023 24.548 27.871 24.812C27.727 25.076 27.655 25.396 27.655 25.772C27.655 26.14 27.727 26.46 27.871 26.732C28.023 26.996 28.223 27.2 28.471 27.344C28.719 27.488 28.999 27.56 29.311 27.56ZM34.3303 29V22.4C34.3303 21.672 34.5463 21.092 34.9783 20.66C35.4103 20.22 36.0263 20 36.8263 20C37.0983 20 37.3583 20.028 37.6063 20.084C37.8623 20.14 38.0783 20.228 38.2543 20.348L37.7623 21.704C37.6583 21.632 37.5423 21.576 37.4143 21.536C37.2863 21.496 37.1503 21.476 37.0063 21.476C36.7343 21.476 36.5223 21.556 36.3703 21.716C36.2263 21.868 36.1543 22.1 36.1543 22.412V23.012L36.2023 23.816V29H34.3303ZM33.3343 24.128V22.688H37.8103V24.128H33.3343ZM41.3829 29.096C40.6229 29.096 40.0309 28.904 39.6069 28.52C39.1829 28.128 38.9709 27.548 38.9709 26.78V21.116H40.8429V26.756C40.8429 27.028 40.9149 27.24 41.0589 27.392C41.2029 27.536 41.3989 27.608 41.6469 27.608C41.9429 27.608 42.1949 27.528 42.4029 27.368L42.9069 28.688C42.7149 28.824 42.4829 28.928 42.2109 29C41.9469 29.064 41.6709 29.096 41.3829 29.096ZM37.9749 24.128V22.688H42.4509V24.128H37.9749ZM45.3166 29L42.9886 22.544H44.7526L46.6846 28.1H45.8446L47.8606 22.544H49.4446L51.4006 28.1H50.5606L52.5526 22.544H54.2086L51.8686 29H50.0566L48.3406 24.236H48.8926L47.1166 29H45.3166ZM58.8279 29V27.74L58.7079 27.464V25.208C58.7079 24.808 58.5839 24.496 58.3359 24.272C58.0959 24.048 57.7239 23.936 57.2199 23.936C56.8759 23.936 56.5359 23.992 56.1999 24.104C55.8719 24.208 55.5919 24.352 55.3599 24.536L54.6879 23.228C55.0399 22.98 55.4639 22.788 55.9599 22.652C56.4559 22.516 56.9599 22.448 57.4719 22.448C58.4559 22.448 59.2199 22.68 59.7639 23.144C60.3079 23.608 60.5799 24.332 60.5799 25.316V29H58.8279ZM56.8599 29.096C56.3559 29.096 55.9239 29.012 55.5639 28.844C55.2039 28.668 54.9279 28.432 54.7359 28.136C54.5439 27.84 54.4479 27.508 54.4479 27.14C54.4479 26.756 54.5399 26.42 54.7239 26.132C54.9159 25.844 55.2159 25.62 55.6239 25.46C56.0319 25.292 56.5639 25.208 57.2199 25.208H58.9359V26.3H57.4239C56.9839 26.3 56.6799 26.372 56.5119 26.516C56.3519 26.66 56.2719 26.84 56.2719 27.056C56.2719 27.296 56.3639 27.488 56.5479 27.632C56.7399 27.768 56.9999 27.836 57.3279 27.836C57.6399 27.836 57.9199 27.764 58.1679 27.62C58.4159 27.468 58.5959 27.248 58.7079 26.96L58.9959 27.824C58.8599 28.24 58.6119 28.556 58.2519 28.772C57.8919 28.988 57.4279 29.096 56.8599 29.096ZM62.2742 29V22.544H64.0622V24.368L63.8102 23.84C64.0022 23.384 64.3102 23.04 64.7342 22.808C65.1582 22.568 65.6742 22.448 66.2822 22.448V24.176C66.2022 24.168 66.1302 24.164 66.0662 24.164C66.0022 24.156 65.9342 24.152 65.8622 24.152C65.3502 24.152 64.9342 24.3 64.6142 24.596C64.3022 24.884 64.1462 25.336 64.1462 25.952V29H62.2742ZM70.5524 29.096C69.8164 29.096 69.1684 28.952 68.6084 28.664C68.0564 28.376 67.6284 27.984 67.3244 27.488C67.0204 26.984 66.8684 26.412 66.8684 25.772C66.8684 25.124 67.0164 24.552 67.3124 24.056C67.6164 23.552 68.0284 23.16 68.5484 22.88C69.0684 22.592 69.6564 22.448 70.3124 22.448C70.9444 22.448 71.5124 22.584 72.0164 22.856C72.5284 23.12 72.9324 23.504 73.2284 24.008C73.5244 24.504 73.6724 25.1 73.6724 25.796C73.6724 25.868 73.6684 25.952 73.6604 26.048C73.6524 26.136 73.6444 26.22 73.6364 26.3H68.3924V25.208H72.6524L71.9324 25.532C71.9324 25.196 71.8644 24.904 71.7284 24.656C71.5924 24.408 71.4044 24.216 71.1644 24.08C70.9244 23.936 70.6444 23.864 70.3244 23.864C70.0044 23.864 69.7204 23.936 69.4724 24.08C69.2324 24.216 69.0444 24.412 68.9084 24.668C68.7724 24.916 68.7044 25.212 68.7044 25.556V25.844C68.7044 26.196 68.7804 26.508 68.9324 26.78C69.0924 27.044 69.3124 27.248 69.5924 27.392C69.8804 27.528 70.2164 27.596 70.6004 27.596C70.9444 27.596 71.2444 27.544 71.5004 27.44C71.7644 27.336 72.0044 27.18 72.2204 26.972L73.2164 28.052C72.9204 28.388 72.5484 28.648 72.1004 28.832C71.6524 29.008 71.1364 29.096 70.5524 29.096ZM81.5212 29.096C80.7852 29.096 80.1372 28.952 79.5772 28.664C79.0252 28.376 78.5972 27.984 78.2932 27.488C77.9892 26.984 77.8372 26.412 77.8372 25.772C77.8372 25.124 77.9852 24.552 78.2812 24.056C78.5852 23.552 78.9972 23.16 79.5172 22.88C80.0372 22.592 80.6252 22.448 81.2812 22.448C81.9132 22.448 82.4812 22.584 82.9852 22.856C83.4972 23.12 83.9012 23.504 84.1972 24.008C84.4932 24.504 84.6412 25.1 84.6412 25.796C84.6412 25.868 84.6372 25.952 84.6292 26.048C84.6212 26.136 84.6132 26.22 84.6052 26.3H79.3612V25.208H83.6212L82.9012 25.532C82.9012 25.196 82.8332 24.904 82.6972 24.656C82.5612 24.408 82.3732 24.216 82.1332 24.08C81.8932 23.936 81.6132 23.864 81.2932 23.864C80.9732 23.864 80.6892 23.936 80.4412 24.08C80.2012 24.216 80.0132 24.412 79.8772 24.668C79.7412 24.916 79.6732 25.212 79.6732 25.556V25.844C79.6732 26.196 79.7492 26.508 79.9012 26.78C80.0612 27.044 80.2812 27.248 80.5612 27.392C80.8492 27.528 81.1852 27.596 81.5692 27.596C81.9132 27.596 82.2132 27.544 82.4692 27.44C82.7332 27.336 82.9732 27.18 83.1892 26.972L84.1852 28.052C83.8892 28.388 83.5172 28.648 83.0692 28.832C82.6212 29.008 82.1052 29.096 81.5212 29.096ZM89.8115 22.448C90.3235 22.448 90.7795 22.552 91.1795 22.76C91.5875 22.96 91.9075 23.272 92.1395 23.696C92.3715 24.112 92.4875 24.648 92.4875 25.304V29H90.6155V25.592C90.6155 25.072 90.4995 24.688 90.2675 24.44C90.0435 24.192 89.7235 24.068 89.3075 24.068C89.0115 24.068 88.7435 24.132 88.5035 24.26C88.2715 24.38 88.0875 24.568 87.9515 24.824C87.8235 25.08 87.7595 25.408 87.7595 25.808V29H85.8875V22.544H87.6755V24.332L87.3395 23.792C87.5715 23.36 87.9035 23.028 88.3355 22.796C88.7675 22.564 89.2595 22.448 89.8115 22.448ZM97.2672 31.424C96.6592 31.424 96.0712 31.348 95.5032 31.196C94.9432 31.052 94.4752 30.832 94.0992 30.536L94.8432 29.192C95.1152 29.416 95.4592 29.592 95.8752 29.72C96.2992 29.856 96.7152 29.924 97.1232 29.924C97.7872 29.924 98.2672 29.776 98.5632 29.48C98.8672 29.184 99.0192 28.744 99.0192 28.16V27.188L99.1392 25.568L99.1152 23.936V22.544H100.891V27.92C100.891 29.12 100.579 30.004 99.9552 30.572C99.3312 31.14 98.4352 31.424 97.2672 31.424ZM96.9792 28.688C96.3792 28.688 95.8352 28.56 95.3472 28.304C94.8672 28.04 94.4792 27.676 94.1832 27.212C93.8952 26.74 93.7512 26.192 93.7512 25.568C93.7512 24.936 93.8952 24.388 94.1832 23.924C94.4792 23.452 94.8672 23.088 95.3472 22.832C95.8352 22.576 96.3792 22.448 96.9792 22.448C97.5232 22.448 98.0032 22.56 98.4192 22.784C98.8352 23 99.1592 23.34 99.3912 23.804C99.6232 24.26 99.7392 24.848 99.7392 25.568C99.7392 26.28 99.6232 26.868 99.3912 27.332C99.1592 27.788 98.8352 28.128 98.4192 28.352C98.0032 28.576 97.5232 28.688 96.9792 28.688ZM97.3512 27.152C97.6792 27.152 97.9712 27.088 98.2272 26.96C98.4832 26.824 98.6832 26.636 98.8272 26.396C98.9712 26.156 99.0432 25.88 99.0432 25.568C99.0432 25.248 98.9712 24.972 98.8272 24.74C98.6832 24.5 98.4832 24.316 98.2272 24.188C97.9712 24.052 97.6792 23.984 97.3512 23.984C97.0232 23.984 96.7312 24.052 96.4752 24.188C96.2192 24.316 96.0152 24.5 95.8632 24.74C95.7192 24.972 95.6472 25.248 95.6472 25.568C95.6472 25.88 95.7192 26.156 95.8632 26.396C96.0152 26.636 96.2192 26.824 96.4752 26.96C96.7312 27.088 97.0232 27.152 97.3512 27.152ZM102.634 29V22.544H104.506V29H102.634ZM103.57 21.644C103.226 21.644 102.946 21.544 102.73 21.344C102.514 21.144 102.406 20.896 102.406 20.6C102.406 20.304 102.514 20.056 102.73 19.856C102.946 19.656 103.226 19.556 103.57 19.556C103.914 19.556 104.194 19.652 104.41 19.844C104.626 20.028 104.734 20.268 104.734 20.564C104.734 20.876 104.626 21.136 104.41 21.344C104.202 21.544 103.922 21.644 103.57 21.644ZM110.167 22.448C110.679 22.448 111.135 22.552 111.535 22.76C111.943 22.96 112.263 23.272 112.495 23.696C112.727 24.112 112.843 24.648 112.843 25.304V29H110.971V25.592C110.971 25.072 110.855 24.688 110.623 24.44C110.399 24.192 110.079 24.068 109.663 24.068C109.367 24.068 109.099 24.132 108.859 24.26C108.627 24.38 108.443 24.568 108.307 24.824C108.179 25.08 108.115 25.408 108.115 25.808V29H106.243V22.544H108.031V24.332L107.695 23.792C107.927 23.36 108.259 23.028 108.691 22.796C109.123 22.564 109.615 22.448 110.167 22.448ZM117.791 29.096C117.055 29.096 116.407 28.952 115.847 28.664C115.295 28.376 114.867 27.984 114.563 27.488C114.259 26.984 114.107 26.412 114.107 25.772C114.107 25.124 114.255 24.552 114.551 24.056C114.855 23.552 115.267 23.16 115.787 22.88C116.307 22.592 116.895 22.448 117.551 22.448C118.183 22.448 118.751 22.584 119.255 22.856C119.767 23.12 120.171 23.504 120.467 24.008C120.763 24.504 120.911 25.1 120.911 25.796C120.911 25.868 120.907 25.952 120.899 26.048C120.891 26.136 120.883 26.22 120.875 26.3H115.631V25.208H119.891L119.171 25.532C119.171 25.196 119.103 24.904 118.967 24.656C118.831 24.408 118.643 24.216 118.403 24.08C118.163 23.936 117.883 23.864 117.563 23.864C117.243 23.864 116.959 23.936 116.711 24.08C116.471 24.216 116.283 24.412 116.147 24.668C116.011 24.916 115.943 25.212 115.943 25.556V25.844C115.943 26.196 116.019 26.508 116.171 26.78C116.331 27.044 116.551 27.248 116.831 27.392C117.119 27.528 117.455 27.596 117.839 27.596C118.183 27.596 118.483 27.544 118.739 27.44C119.003 27.336 119.243 27.18 119.459 26.972L120.455 28.052C120.159 28.388 119.787 28.648 119.339 28.832C118.891 29.008 118.375 29.096 117.791 29.096ZM125.361 29.096C124.625 29.096 123.977 28.952 123.417 28.664C122.865 28.376 122.437 27.984 122.133 27.488C121.829 26.984 121.677 26.412 121.677 25.772C121.677 25.124 121.825 24.552 122.121 24.056C122.425 23.552 122.837 23.16 123.357 22.88C123.877 22.592 124.465 22.448 125.121 22.448C125.753 22.448 126.321 22.584 126.825 22.856C127.337 23.12 127.741 23.504 128.037 24.008C128.333 24.504 128.481 25.1 128.481 25.796C128.481 25.868 128.477 25.952 128.469 26.048C128.461 26.136 128.453 26.22 128.445 26.3H123.201V25.208H127.461L126.741 25.532C126.741 25.196 126.673 24.904 126.537 24.656C126.401 24.408 126.213 24.216 125.973 24.08C125.733 23.936 125.453 23.864 125.133 23.864C124.813 23.864 124.529 23.936 124.281 24.08C124.041 24.216 123.853 24.412 123.717 24.668C123.581 24.916 123.513 25.212 123.513 25.556V25.844C123.513 26.196 123.589 26.508 123.741 26.78C123.901 27.044 124.121 27.248 124.401 27.392C124.689 27.528 125.025 27.596 125.409 27.596C125.753 27.596 126.053 27.544 126.309 27.44C126.573 27.336 126.813 27.18 127.029 26.972L128.025 28.052C127.729 28.388 127.357 28.648 126.909 28.832C126.461 29.008 125.945 29.096 125.361 29.096ZM129.727 29V22.544H131.515V24.368L131.263 23.84C131.455 23.384 131.763 23.04 132.187 22.808C132.611 22.568 133.127 22.448 133.735 22.448V24.176C133.655 24.168 133.583 24.164 133.519 24.164C133.455 24.156 133.387 24.152 133.315 24.152C132.803 24.152 132.387 24.3 132.067 24.596C131.755 24.884 131.599 25.336 131.599 25.952V29H129.727Z" fill="#343045"/>
<defs>
<linearGradient id="paint0_linear_280_40" x1="3.05176e-05" y1="24.5" x2="154" y2="24.5" gradientUnits="userSpaceOnUse">
<stop stop-color="#8176AF"/>
<stop offset="1" stop-color="#C0B7E8"/>
</linearGradient>
</defs>
</svg>
