<svg width="36" height="44" viewBox="0 0 36 44" fill="none" xmlns="http://www.w3.org/2000/svg">
    <path d="M18.5204 2.14608L18 1.82893L17.4796 2.14608L1.89114 11.6461L1.41154 11.9384V12.5V31.5V32.0616L1.89114 32.3539L17.4796 41.8539L18 42.1711L18.5204 41.8539L34.1089 32.3539L34.5885 32.0616V31.5V12.5V11.9384L34.1089 11.6461L18.5204 2.14608Z" fill="url(#pattern0)" stroke="url(#paint0_linear_268_905)" stroke-width="1"/>
    <clipPath id="clip10" transform="translate(4.30642 0.376274)">
        <path d="M18.5204 2.14608L18 1.82893L17.4796 2.14608L1.89114 11.6461L1.41154 11.9384V12.5V31.5V32.0616L1.89114 32.3539L17.4796 41.8539L18 42.1711L18.5204 41.8539L34.1089 32.3539L34.5885 32.0616V31.5V12.5V11.9384L34.1089 11.6461L18.5204 2.14608Z" fill="url(#pattern0)" stroke="url(#paint0_linear_268_905)" stroke-width="2"/>
    </clipPath>
    <defs>
        <linearGradient id="paint0_linear_268_905" x1="8.59091" y1="3" x2="29.0565" y2="40.091" gradientUnits="userSpaceOnUse">
            <stop stop-color="#A73EE7"/>
            <stop offset="1" stop-color="#00EBFF"/>
        </linearGradient>
    </defs>
</svg>