<svg width="425" height="38" viewBox="0 0 425 38" fill="none" xmlns="http://www.w3.org/2000/svg">
<path d="M0.818 37V4.8H15.446C18.942 4.8 22.024 5.47466 24.692 6.824C27.36 8.14267 29.4453 9.998 30.948 12.39C32.4507 14.782 33.202 17.6187 33.202 20.9C33.202 24.1507 32.4507 26.9873 30.948 29.41C29.4453 31.802 27.36 33.6727 24.692 35.022C22.024 36.3407 18.942 37 15.446 37H0.818ZM8.27 30.882H15.078C17.2247 30.882 19.08 30.4833 20.644 29.686C22.2387 28.858 23.4653 27.6927 24.324 26.19C25.2133 24.6873 25.658 22.924 25.658 20.9C25.658 18.8453 25.2133 17.082 24.324 15.61C23.4653 14.1073 22.2387 12.9573 20.644 12.16C19.08 11.332 17.2247 10.918 15.078 10.918H8.27V30.882ZM38.3159 37V12.252H45.4919V37H38.3159ZM41.9039 8.802C40.5852 8.802 39.5119 8.41867 38.6839 7.652C37.8559 6.88533 37.4419 5.93466 37.4419 4.8C37.4419 3.66533 37.8559 2.71466 38.6839 1.948C39.5119 1.18133 40.5852 0.797997 41.9039 0.797997C43.2226 0.797997 44.2959 1.166 45.1239 1.902C45.9519 2.60733 46.3659 3.52733 46.3659 4.662C46.3659 5.858 45.9519 6.85467 45.1239 7.652C44.3266 8.41867 43.2532 8.802 41.9039 8.802ZM58.8678 37L48.4718 12.252H55.8778L64.5258 33.55H60.8458L69.8158 12.252H76.7158L66.2738 37H58.8678ZM91.2522 37.368C88.4309 37.368 85.9469 36.816 83.8002 35.712C81.6842 34.608 80.0435 33.1053 78.8782 31.204C77.7129 29.272 77.1302 27.0793 77.1302 24.626C77.1302 22.142 77.6975 19.9493 78.8322 18.048C79.9975 16.116 81.5769 14.6133 83.5702 13.54C85.5635 12.436 87.8175 11.884 90.3322 11.884C92.7549 11.884 94.9322 12.4053 96.8642 13.448C98.8269 14.46 100.376 15.932 101.51 17.864C102.645 19.7653 103.212 22.05 103.212 24.718C103.212 24.994 103.197 25.316 103.166 25.684C103.136 26.0213 103.105 26.3433 103.074 26.65H82.9722V22.464H99.3022L96.5422 23.706C96.5422 22.418 96.2815 21.2987 95.7602 20.348C95.2389 19.3973 94.5182 18.6613 93.5982 18.14C92.6782 17.588 91.6049 17.312 90.3782 17.312C89.1515 17.312 88.0629 17.588 87.1122 18.14C86.1922 18.6613 85.4715 19.4127 84.9502 20.394C84.4289 21.3447 84.1682 22.4793 84.1682 23.798V24.902C84.1682 26.2513 84.4595 27.4473 85.0422 28.49C85.6555 29.502 86.4989 30.284 87.5722 30.836C88.6762 31.3573 89.9642 31.618 91.4362 31.618C92.7549 31.618 93.9049 31.4187 94.8862 31.02C95.8982 30.6213 96.8182 30.0233 97.6462 29.226L101.464 33.366C100.33 34.654 98.9035 35.6507 97.1862 36.356C95.4689 37.0307 93.4909 37.368 91.2522 37.368Z" fill="url(#paint0_linear_2_40)"/>
<path d="M119.326 37V9H125.806V37H119.326ZM145.091 15.16C146.798 15.16 148.318 15.5067 149.651 16.2C151.011 16.8667 152.078 17.9067 152.851 19.32C153.624 20.7067 154.011 22.4933 154.011 24.68V37H147.771V25.64C147.771 23.9067 147.384 22.6267 146.611 21.8C145.864 20.9733 144.798 20.56 143.411 20.56C142.424 20.56 141.531 20.7733 140.731 21.2C139.958 21.6 139.344 22.2267 138.891 23.08C138.464 23.9333 138.251 25.0267 138.251 26.36V37H132.011V15.48H137.971V21.44L136.851 19.64C137.624 18.2 138.731 17.0933 140.171 16.32C141.611 15.5467 143.251 15.16 145.091 15.16ZM168.467 37.32C165.934 37.32 163.96 36.68 162.547 35.4C161.134 34.0933 160.427 32.16 160.427 29.6V10.72H166.667V29.52C166.667 30.4267 166.907 31.1333 167.387 31.64C167.867 32.12 168.52 32.36 169.347 32.36C170.334 32.36 171.174 32.0933 171.867 31.56L173.547 35.96C172.907 36.4133 172.134 36.76 171.227 37C170.347 37.2133 169.427 37.32 168.467 37.32ZM157.107 20.76V15.96H172.027V20.76H157.107ZM186.626 37.32C184.333 37.32 182.293 36.84 180.506 35.88C178.746 34.92 177.346 33.6133 176.306 31.96C175.293 30.28 174.786 28.3733 174.786 26.24C174.786 24.08 175.293 22.1733 176.306 20.52C177.346 18.84 178.746 17.5333 180.506 16.6C182.293 15.64 184.333 15.16 186.626 15.16C188.893 15.16 190.919 15.64 192.706 16.6C194.493 17.5333 195.893 18.8267 196.906 20.48C197.919 22.1333 198.426 24.0533 198.426 26.24C198.426 28.3733 197.919 30.28 196.906 31.96C195.893 33.6133 194.493 34.92 192.706 35.88C190.919 36.84 188.893 37.32 186.626 37.32ZM186.626 32.2C187.666 32.2 188.599 31.96 189.426 31.48C190.253 31 190.906 30.32 191.386 29.44C191.866 28.5333 192.106 27.4667 192.106 26.24C192.106 24.9867 191.866 23.92 191.386 23.04C190.906 22.16 190.253 21.48 189.426 21C188.599 20.52 187.666 20.28 186.626 20.28C185.586 20.28 184.653 20.52 183.826 21C182.999 21.48 182.333 22.16 181.826 23.04C181.346 23.92 181.106 24.9867 181.106 26.24C181.106 27.4667 181.346 28.5333 181.826 29.44C182.333 30.32 182.999 31 183.826 31.48C184.653 31.96 185.586 32.2 186.626 32.2ZM220.165 37V14.28H211.205V9H235.605V14.28H226.645V37H220.165ZM251.731 15.16C253.438 15.16 254.958 15.5067 256.291 16.2C257.651 16.8667 258.718 17.9067 259.491 19.32C260.265 20.7067 260.651 22.4933 260.651 24.68V37H254.411V25.64C254.411 23.9067 254.025 22.6267 253.251 21.8C252.505 20.9733 251.438 20.56 250.051 20.56C249.065 20.56 248.171 20.7733 247.371 21.2C246.598 21.6 245.985 22.2267 245.531 23.08C245.105 23.9333 244.891 25.0267 244.891 26.36V37H238.651V7.32H244.891V21.44L243.491 19.64C244.265 18.2 245.371 17.0933 246.811 16.32C248.251 15.5467 249.891 15.16 251.731 15.16ZM277.144 37.32C274.691 37.32 272.531 36.84 270.664 35.88C268.824 34.92 267.397 33.6133 266.384 31.96C265.371 30.28 264.864 28.3733 264.864 26.24C264.864 24.08 265.357 22.1733 266.344 20.52C267.357 18.84 268.731 17.5333 270.464 16.6C272.197 15.64 274.157 15.16 276.344 15.16C278.451 15.16 280.344 15.6133 282.024 16.52C283.731 17.4 285.077 18.68 286.064 20.36C287.051 22.0133 287.544 24 287.544 26.32C287.544 26.56 287.531 26.84 287.504 27.16C287.477 27.4533 287.451 27.7333 287.424 28H269.944V24.36H284.144L281.744 25.44C281.744 24.32 281.517 23.3467 281.064 22.52C280.611 21.6933 279.984 21.0533 279.184 20.6C278.384 20.12 277.451 19.88 276.384 19.88C275.317 19.88 274.371 20.12 273.544 20.6C272.744 21.0533 272.117 21.7067 271.664 22.56C271.211 23.3867 270.984 24.3733 270.984 25.52V26.48C270.984 27.6533 271.237 28.6933 271.744 29.6C272.277 30.48 273.011 31.16 273.944 31.64C274.904 32.0933 276.024 32.32 277.304 32.32C278.451 32.32 279.451 32.1467 280.304 31.8C281.184 31.4533 281.984 30.9333 282.704 30.24L286.024 33.84C285.037 34.96 283.797 35.8267 282.304 36.44C280.811 37.0267 279.091 37.32 277.144 37.32ZM310.186 37L301.026 9H307.746L315.706 33.8H312.346L320.666 9H326.666L334.666 33.8H331.426L339.586 9H345.786L336.626 37H329.666L322.586 15.24H324.426L317.146 37H310.186ZM357.602 37.32C355.309 37.32 353.269 36.84 351.482 35.88C349.722 34.92 348.322 33.6133 347.282 31.96C346.269 30.28 345.762 28.3733 345.762 26.24C345.762 24.08 346.269 22.1733 347.282 20.52C348.322 18.84 349.722 17.5333 351.482 16.6C353.269 15.64 355.309 15.16 357.602 15.16C359.869 15.16 361.896 15.64 363.682 16.6C365.469 17.5333 366.869 18.8267 367.882 20.48C368.896 22.1333 369.402 24.0533 369.402 26.24C369.402 28.3733 368.896 30.28 367.882 31.96C366.869 33.6133 365.469 34.92 363.682 35.88C361.896 36.84 359.869 37.32 357.602 37.32ZM357.602 32.2C358.642 32.2 359.576 31.96 360.402 31.48C361.229 31 361.882 30.32 362.362 29.44C362.842 28.5333 363.082 27.4667 363.082 26.24C363.082 24.9867 362.842 23.92 362.362 23.04C361.882 22.16 361.229 21.48 360.402 21C359.576 20.52 358.642 20.28 357.602 20.28C356.562 20.28 355.629 20.52 354.802 21C353.976 21.48 353.309 22.16 352.802 23.04C352.322 23.92 352.082 24.9867 352.082 26.24C352.082 27.4667 352.322 28.5333 352.802 29.44C353.309 30.32 353.976 31 354.802 31.48C355.629 31.96 356.562 32.2 357.602 32.2ZM373.573 37V15.48H379.533V21.56L378.693 19.8C379.333 18.28 380.36 17.1333 381.773 16.36C383.187 15.56 384.907 15.16 386.933 15.16V20.92C386.667 20.8933 386.427 20.88 386.213 20.88C386 20.8533 385.773 20.84 385.533 20.84C383.827 20.84 382.44 21.3333 381.373 22.32C380.333 23.28 379.813 24.7867 379.813 26.84V37H373.573ZM390.683 37V7.32H396.923V37H390.683ZM411.954 37.32C409.927 37.32 408.101 36.8667 406.474 35.96C404.847 35.0267 403.554 33.7333 402.594 32.08C401.661 30.4267 401.194 28.48 401.194 26.24C401.194 23.9733 401.661 22.0133 402.594 20.36C403.554 18.7067 404.847 17.4267 406.474 16.52C408.101 15.6133 409.927 15.16 411.954 15.16C413.767 15.16 415.354 15.56 416.714 16.36C418.074 17.16 419.127 18.3733 419.874 20C420.621 21.6267 420.994 23.7067 420.994 26.24C420.994 28.7467 420.634 30.8267 419.914 32.48C419.194 34.1067 418.154 35.32 416.794 36.12C415.461 36.92 413.847 37.32 411.954 37.32ZM413.034 32.2C414.047 32.2 414.967 31.96 415.794 31.48C416.621 31 417.274 30.32 417.754 29.44C418.261 28.5333 418.514 27.4667 418.514 26.24C418.514 24.9867 418.261 23.92 417.754 23.04C417.274 22.16 416.621 21.48 415.794 21C414.967 20.52 414.047 20.28 413.034 20.28C411.994 20.28 411.061 20.52 410.234 21C409.407 21.48 408.741 22.16 408.234 23.04C407.754 23.92 407.514 24.9867 407.514 26.24C407.514 27.4667 407.754 28.5333 408.234 29.44C408.741 30.32 409.407 31 410.234 31.48C411.061 31.96 411.994 32.2 413.034 32.2ZM418.674 37V32.6L418.794 26.2L418.394 19.84V7.32H424.634V37H418.674Z" fill="white"/>
<defs>
<linearGradient id="paint0_linear_2_40" x1="-9.82579" y1="3.85715" x2="148.188" y2="37.2455" gradientUnits="userSpaceOnUse">
<stop stop-color="#C0B7E8"/>
<stop offset="1" stop-color="#8176AF"/>
</linearGradient>
</defs>
</svg>
