<svg width="308" height="47" viewBox="0 0 308 47" fill="none" xmlns="http://www.w3.org/2000/svg">
<path d="M15.92 37.48C13.7067 37.48 11.6533 37.12 9.76 36.4C7.89333 35.68 6.26667 34.6667 4.88 33.36C3.52 32.0533 2.45333 30.52 1.68 28.76C0.933333 27 0.56 25.08 0.56 23C0.56 20.92 0.933333 19 1.68 17.24C2.45333 15.48 3.53333 13.9467 4.92 12.64C6.30667 11.3333 7.93333 10.32 9.8 9.6C11.6667 8.88 13.6933 8.52 15.88 8.52C18.0933 8.52 20.12 8.88 21.96 9.6C23.8267 10.32 25.44 11.3333 26.8 12.64C28.1867 13.9467 29.2667 15.48 30.04 17.24C30.8133 18.9733 31.2 20.8933 31.2 23C31.2 25.08 30.8133 27.0133 30.04 28.8C29.2667 30.56 28.1867 32.0933 26.8 33.4C25.44 34.68 23.8267 35.68 21.96 36.4C20.12 37.12 18.1067 37.48 15.92 37.48ZM15.88 31.96C17.1333 31.96 18.28 31.7467 19.32 31.32C20.3867 30.8933 21.32 30.28 22.12 29.48C22.92 28.68 23.5333 27.7333 23.96 26.64C24.4133 25.5467 24.64 24.3333 24.64 23C24.64 21.6667 24.4133 20.4533 23.96 19.36C23.5333 18.2667 22.92 17.32 22.12 16.52C21.3467 15.72 20.4267 15.1067 19.36 14.68C18.2933 14.2533 17.1333 14.04 15.88 14.04C14.6267 14.04 13.4667 14.2533 12.4 14.68C11.36 15.1067 10.44 15.72 9.64 16.52C8.84 17.32 8.21333 18.2667 7.76 19.36C7.33333 20.4533 7.12 21.6667 7.12 23C7.12 24.3067 7.33333 25.52 7.76 26.64C8.21333 27.7333 8.82667 28.68 9.6 29.48C10.4 30.28 11.3333 30.8933 12.4 31.32C13.4667 31.7467 14.6267 31.96 15.88 31.96ZM36.39 37V15C36.39 12.5733 37.11 10.64 38.55 9.2C39.99 7.73333 42.0433 7 44.71 7C45.6167 7 46.4833 7.09333 47.31 7.28C48.1633 7.46666 48.8833 7.76 49.47 8.16L47.83 12.68C47.4833 12.44 47.0967 12.2533 46.67 12.12C46.2433 11.9867 45.79 11.92 45.31 11.92C44.4033 11.92 43.6967 12.1867 43.19 12.72C42.71 13.2267 42.47 14 42.47 15.04V17.04L42.63 19.72V37H36.39ZM33.07 20.76V15.96H47.99V20.76H33.07Z" fill="white"/>
<path d="M63.3649 37V4.8H77.3029C80.1855 4.8 82.6695 5.27533 84.7549 6.226C86.8402 7.146 88.4502 8.48 89.5849 10.228C90.7195 11.976 91.2869 14.0613 91.2869 16.484C91.2869 18.876 90.7195 20.946 89.5849 22.694C88.4502 24.442 86.8402 25.7913 84.7549 26.742C82.6695 27.662 80.1855 28.122 77.3029 28.122H67.5049L70.8169 24.764V37H63.3649ZM70.8169 25.592L67.5049 22.05H76.8889C79.1889 22.05 80.9062 21.5593 82.0409 20.578C83.1755 19.5967 83.7429 18.232 83.7429 16.484C83.7429 14.7053 83.1755 13.3253 82.0409 12.344C80.9062 11.3627 79.1889 10.872 76.8889 10.872H67.5049L70.8169 7.33V25.592ZM96.5503 37V12.252H103.726V37H96.5503ZM100.138 8.802C98.8196 8.802 97.7463 8.41867 96.9183 7.652C96.0903 6.88533 95.6763 5.93466 95.6763 4.8C95.6763 3.66533 96.0903 2.71466 96.9183 1.948C97.7463 1.18133 98.8196 0.797997 100.138 0.797997C101.457 0.797997 102.53 1.166 103.358 1.902C104.186 2.60733 104.6 3.52733 104.6 4.662C104.6 5.858 104.186 6.85467 103.358 7.652C102.561 8.41867 101.488 8.802 100.138 8.802ZM125.428 11.884C127.391 11.884 129.139 12.2827 130.672 13.08C132.236 13.8467 133.463 15.0427 134.352 16.668C135.242 18.2627 135.686 20.3173 135.686 22.832V37H128.51V23.936C128.51 21.9427 128.066 20.4707 127.176 19.52C126.318 18.5693 125.091 18.094 123.496 18.094C122.362 18.094 121.334 18.3393 120.414 18.83C119.525 19.29 118.82 20.0107 118.298 20.992C117.808 21.9733 117.562 23.2307 117.562 24.764V37H110.386V12.252H117.24V19.106L115.952 17.036C116.842 15.38 118.114 14.1073 119.77 13.218C121.426 12.3287 123.312 11.884 125.428 11.884ZM154.009 46.292C151.678 46.292 149.424 46.0007 147.247 45.418C145.1 44.866 143.306 44.0227 141.865 42.888L144.717 37.736C145.759 38.5947 147.078 39.2693 148.673 39.76C150.298 40.2813 151.893 40.542 153.457 40.542C156.002 40.542 157.842 39.9747 158.977 38.84C160.142 37.7053 160.725 36.0187 160.725 33.78V30.054L161.185 23.844L161.093 17.588V12.252H167.901V32.86C167.901 37.46 166.705 40.8487 164.313 43.026C161.921 45.2033 158.486 46.292 154.009 46.292ZM152.905 35.804C150.605 35.804 148.519 35.3133 146.649 34.332C144.809 33.32 143.321 31.9247 142.187 30.146C141.083 28.3367 140.531 26.236 140.531 23.844C140.531 21.4213 141.083 19.3207 142.187 17.542C143.321 15.7327 144.809 14.3373 146.649 13.356C148.519 12.3747 150.605 11.884 152.905 11.884C154.99 11.884 156.83 12.3133 158.425 13.172C160.019 14 161.261 15.3033 162.151 17.082C163.04 18.83 163.485 21.084 163.485 23.844C163.485 26.5733 163.04 28.8273 162.151 30.606C161.261 32.354 160.019 33.6573 158.425 34.516C156.83 35.3747 154.99 35.804 152.905 35.804ZM154.331 29.916C155.588 29.916 156.707 29.6707 157.689 29.18C158.67 28.6587 159.437 27.938 159.989 27.018C160.541 26.098 160.817 25.04 160.817 23.844C160.817 22.6173 160.541 21.5593 159.989 20.67C159.437 19.75 158.67 19.0447 157.689 18.554C156.707 18.0327 155.588 17.772 154.331 17.772C153.073 17.772 151.954 18.0327 150.973 18.554C149.991 19.0447 149.209 19.75 148.627 20.67C148.075 21.5593 147.799 22.6173 147.799 23.844C147.799 25.04 148.075 26.098 148.627 27.018C149.209 27.938 149.991 28.6587 150.973 29.18C151.954 29.6707 153.073 29.916 154.331 29.916ZM202.235 37.368C200.15 37.368 198.325 36.908 196.761 35.988C195.197 35.068 193.97 33.6727 193.081 31.802C192.222 29.9007 191.793 27.5087 191.793 24.626C191.793 21.7127 192.207 19.3207 193.035 17.45C193.863 15.5793 195.059 14.184 196.623 13.264C198.187 12.344 200.058 11.884 202.235 11.884C204.566 11.884 206.651 12.4207 208.491 13.494C210.362 14.5367 211.834 16.0087 212.907 17.91C214.011 19.8113 214.563 22.05 214.563 24.626C214.563 27.2327 214.011 29.4867 212.907 31.388C211.834 33.2893 210.362 34.7613 208.491 35.804C206.651 36.8467 204.566 37.368 202.235 37.368ZM187.607 45.924V12.252H194.461V17.312L194.323 24.672L194.783 31.986V45.924H187.607ZM200.993 31.48C202.189 31.48 203.247 31.204 204.167 30.652C205.118 30.1 205.869 29.318 206.421 28.306C207.004 27.2633 207.295 26.0367 207.295 24.626C207.295 23.1847 207.004 21.958 206.421 20.946C205.869 19.934 205.118 19.152 204.167 18.6C203.247 18.048 202.189 17.772 200.993 17.772C199.797 17.772 198.724 18.048 197.773 18.6C196.822 19.152 196.071 19.934 195.519 20.946C194.967 21.958 194.691 23.1847 194.691 24.626C194.691 26.0367 194.967 27.2633 195.519 28.306C196.071 29.318 196.822 30.1 197.773 30.652C198.724 31.204 199.797 31.48 200.993 31.48ZM231.143 37.368C228.505 37.368 226.159 36.816 224.105 35.712C222.081 34.608 220.471 33.1053 219.275 31.204C218.109 29.272 217.527 27.0793 217.527 24.626C217.527 22.142 218.109 19.9493 219.275 18.048C220.471 16.116 222.081 14.6133 224.105 13.54C226.159 12.436 228.505 11.884 231.143 11.884C233.749 11.884 236.08 12.436 238.135 13.54C240.189 14.6133 241.799 16.1007 242.965 18.002C244.13 19.9033 244.713 22.1113 244.713 24.626C244.713 27.0793 244.13 29.272 242.965 31.204C241.799 33.1053 240.189 34.608 238.135 35.712C236.08 36.816 233.749 37.368 231.143 37.368ZM231.143 31.48C232.339 31.48 233.412 31.204 234.363 30.652C235.313 30.1 236.065 29.318 236.617 28.306C237.169 27.2633 237.445 26.0367 237.445 24.626C237.445 23.1847 237.169 21.958 236.617 20.946C236.065 19.934 235.313 19.152 234.363 18.6C233.412 18.048 232.339 17.772 231.143 17.772C229.947 17.772 228.873 18.048 227.923 18.6C226.972 19.152 226.205 19.934 225.623 20.946C225.071 21.958 224.795 23.1847 224.795 24.626C224.795 26.0367 225.071 27.2633 225.623 28.306C226.205 29.318 226.972 30.1 227.923 30.652C228.873 31.204 229.947 31.48 231.143 31.48ZM264.551 11.884C266.514 11.884 268.262 12.2827 269.795 13.08C271.359 13.8467 272.586 15.0427 273.475 16.668C274.365 18.2627 274.809 20.3173 274.809 22.832V37H267.633V23.936C267.633 21.9427 267.189 20.4707 266.299 19.52C265.441 18.5693 264.214 18.094 262.619 18.094C261.485 18.094 260.457 18.3393 259.537 18.83C258.648 19.29 257.943 20.0107 257.421 20.992C256.931 21.9733 256.685 23.2307 256.685 24.764V37H249.509V12.252H256.363V19.106L255.075 17.036C255.965 15.38 257.237 14.1073 258.893 13.218C260.549 12.3287 262.435 11.884 264.551 11.884ZM293.132 46.292C290.801 46.292 288.547 46.0007 286.37 45.418C284.223 44.866 282.429 44.0227 280.988 42.888L283.84 37.736C284.882 38.5947 286.201 39.2693 287.796 39.76C289.421 40.2813 291.016 40.542 292.58 40.542C295.125 40.542 296.965 39.9747 298.1 38.84C299.265 37.7053 299.848 36.0187 299.848 33.78V30.054L300.308 23.844L300.216 17.588V12.252H307.024V32.86C307.024 37.46 305.828 40.8487 303.436 43.026C301.044 45.2033 297.609 46.292 293.132 46.292ZM292.028 35.804C289.728 35.804 287.642 35.3133 285.772 34.332C283.932 33.32 282.444 31.9247 281.31 30.146C280.206 28.3367 279.654 26.236 279.654 23.844C279.654 21.4213 280.206 19.3207 281.31 17.542C282.444 15.7327 283.932 14.3373 285.772 13.356C287.642 12.3747 289.728 11.884 292.028 11.884C294.113 11.884 295.953 12.3133 297.548 13.172C299.142 14 300.384 15.3033 301.274 17.082C302.163 18.83 302.608 21.084 302.608 23.844C302.608 26.5733 302.163 28.8273 301.274 30.606C300.384 32.354 299.142 33.6573 297.548 34.516C295.953 35.3747 294.113 35.804 292.028 35.804ZM293.454 29.916C294.711 29.916 295.83 29.6707 296.812 29.18C297.793 28.6587 298.56 27.938 299.112 27.018C299.664 26.098 299.94 25.04 299.94 23.844C299.94 22.6173 299.664 21.5593 299.112 20.67C298.56 19.75 297.793 19.0447 296.812 18.554C295.83 18.0327 294.711 17.772 293.454 17.772C292.196 17.772 291.077 18.0327 290.096 18.554C289.114 19.0447 288.332 19.75 287.75 20.67C287.198 21.5593 286.922 22.6173 286.922 23.844C286.922 25.04 287.198 26.098 287.75 27.018C288.332 27.938 289.114 28.6587 290.096 29.18C291.077 29.6707 292.196 29.916 293.454 29.916Z" fill="url(#paint0_linear_2_39)"/>
<defs>
<linearGradient id="paint0_linear_2_39" x1="322.798" y1="-7.00001" x2="52.7147" y2="19.2373" gradientUnits="userSpaceOnUse">
<stop stop-color="#C0B7E8"/>
<stop offset="1" stop-color="#8176AF"/>
</linearGradient>
</defs>
</svg>
