<svg id="avBg" width="307" height="261" viewBox="0 0 307 261" fill="none" xmlns="http://www.w3.org/2000/svg">
    <path d="M41.9922 2H150.492M157.992 2H193.992M197.992 2H209.492M214.992 2H221.992M226.992 2H230.992M235.992 2H238.992M244.492 2H247.492M252.992 2H255.492M261.992 2H263.992" stroke="#377E7A" stroke-width="3"/>
    <path d="M195 250V249H205V250M195 250V251H205V250M195 250H205M96 244V256H210V244H191H96ZM96 259H210V260H96V259ZM191 245V255H209V245H191ZM192 246V254H208V246H192ZM193 253V247H207V253H193ZM194 248V252H206V248H194Z" stroke="#377E7A"/>
    <path d="M38.9922 232H257.492M38.9922 7H267.992" stroke="#00FFE0"/>
    <path d="M28.5042 6.5C28.5042 6.5 28.5081 6.5001 24.0042 6.5C19.5003 6.4999 16.2617 7.08989 12.5042 9C10.6214 9.9571 9.57953 10.5932 8.00419 12C6.13908 13.6656 5.1415 14.773 4.00419 17C3.16145 18.6502 2.91514 19.6941 2.50028 21.5C2.23441 22.6573 2.01361 24.5 2.00419 26.5C1.99476 28.5 2.00419 28.5 2.00419 28.5" stroke="#00FFE0" stroke-width="3"/>
    <path d="M2.25391 205.248C2.25391 205.248 2.254 205.244 2.25391 209.748C2.25381 214.252 2.8438 217.49 4.75391 221.248C5.71101 223.131 6.34707 224.172 7.75391 225.748C9.41951 227.613 10.5269 228.61 12.7539 229.748C14.4041 230.59 15.448 230.837 17.2539 231.252C18.4112 231.518 20.2539 231.738 22.2539 231.748C24.2539 231.757 24.2539 231.748 24.2539 231.748" stroke="#00FFE0" stroke-width="3"/>
    <path d="M278.242 231.5C278.242 231.5 278.238 231.5 282.742 231.5C287.246 231.5 290.484 230.91 294.242 229C296.125 228.043 297.167 227.407 298.742 226C300.607 224.334 301.605 223.227 302.742 221C303.585 219.35 303.831 218.306 304.246 216.5C304.512 215.343 304.732 213.5 304.742 211.5C304.751 209.5 304.742 209.5 304.742 209.5" stroke="#00FFE0" stroke-width="3"/>
    <path d="M302.492 31.0042C302.492 31.0042 302.492 31.0081 302.492 26.5042C302.492 22.0003 301.902 18.7617 299.992 15.0042C299.035 13.1214 298.399 12.0795 296.992 10.5042C295.327 8.63908 294.219 7.6415 291.992 6.50419C290.342 5.66145 289.298 5.41514 287.492 5.00028C286.335 4.73441 284.492 4.51361 282.492 4.50419C280.492 4.49476 280.492 4.50419 280.492 4.50419" stroke="#00FFE0" stroke-width="3"/>
</svg>