<svg id="followBg" viewBox="0 0 607 300" fill="none" xmlns="http://www.w3.org/2000/svg">
    <path d="M260.828 4H47.8284C47.8284 5.65685 46.4853 7 44.8284 7C43.1716 7 41.8284 5.65685 41.8284 4C41.8284 2.34315 43.1716 1 44.8284 1C46.4853 1 47.8284 2.34315 47.8284 4H260.828C260.828 2.34315 262.172 1 263.828 1C265.485 1 266.828 2.34315 266.828 4C266.828 5.65685 265.485 7 263.828 7C262.172 7 260.828 5.65685 260.828 4Z" fill="#D9D9D9" fill-opacity="0.19"/>
    <path d="M263.828 11.5H44.8284L4.32843 50.5V252L41.8284 289.5H520.328L561.328 248.5V203.5L597.328 167.5V89L558.328 50H302.328L263.828 11.5Z" fill="#D9D9D9" fill-opacity="0.19"/>
    <path d="M602.828 171V92.5C601.172 92.5 599.828 91.1569 599.828 89.5C599.828 87.8431 601.172 86.5 602.828 86.5C604.485 86.5 605.828 87.8431 605.828 89.5C605.828 91.1569 604.485 92.5 602.828 92.5V171L569.328 204.5C570.918 205.945 570.918 208.555 569.328 210C567.884 211.313 565.773 211.313 564.328 210C562.739 208.555 562.739 205.945 564.328 204.5C565.773 203.187 567.884 203.187 569.328 204.5L602.828 171Z" fill="#D9D9D9" fill-opacity="0.19"/>
    <path d="M40.3284 296.5H516.328C516.328 294.843 517.672 293.5 519.328 293.5C520.985 293.5 522.328 294.843 522.328 296.5C522.328 298.157 520.985 299.5 519.328 299.5C517.672 299.5 516.328 298.157 516.328 296.5H40.3284L5.82843 262C4.72386 263.105 2.933 263.105 1.82843 262C0.723858 260.895 0.723858 259.105 1.82843 258C2.933 256.895 4.72386 256.895 5.82843 258C6.933 259.105 6.933 260.895 5.82843 262L40.3284 296.5Z" fill="#D9D9D9" fill-opacity="0.19"/>
    <path d="M47.8284 4C131.01 4 177.647 4 260.828 4M47.8284 4C47.8284 2.34315 46.4853 1 44.8284 1C43.1716 1 41.8284 2.34315 41.8284 4C41.8284 5.65685 43.1716 7 44.8284 7C46.4853 7 47.8284 5.65685 47.8284 4ZM260.828 4C260.828 2.34315 262.172 1 263.828 1C265.485 1 266.828 2.34315 266.828 4C266.828 5.65685 265.485 7 263.828 7C262.172 7 260.828 5.65685 260.828 4ZM602.828 92.5C602.828 123.156 602.828 171 602.828 171C602.828 171 582.411 191.417 569.328 204.5M602.828 92.5C604.485 92.5 605.828 91.1569 605.828 89.5C605.828 87.8431 604.485 86.5 602.828 86.5C601.172 86.5 599.828 87.8431 599.828 89.5C599.828 91.1569 601.172 92.5 602.828 92.5ZM569.328 204.5C567.884 203.187 565.773 203.187 564.328 204.5C562.739 205.945 562.739 208.555 564.328 210C565.773 211.313 567.884 211.313 569.328 210C570.918 208.555 570.918 205.945 569.328 204.5ZM516.328 296.5C330.439 296.5 40.3284 296.5 40.3284 296.5C40.3284 296.5 19.3015 275.473 5.82843 262M516.328 296.5C516.328 294.843 517.672 293.5 519.328 293.5C520.985 293.5 522.328 294.843 522.328 296.5C522.328 298.157 520.985 299.5 519.328 299.5C517.672 299.5 516.328 298.157 516.328 296.5ZM5.82843 262C6.933 260.895 6.933 259.105 5.82843 258C4.72386 256.895 2.933 256.895 1.82843 258C0.723858 259.105 0.723858 260.895 1.82843 262C2.933 263.105 4.72386 263.105 5.82843 262ZM44.8284 11.5H263.828L302.328 50H558.328L597.328 89V167.5L561.328 203.5V248.5L520.328 289.5H41.8284L4.32843 252V50.5L44.8284 11.5Z" stroke="white"/>
</svg>