<svg id="bg" width="180" height="241" viewBox="0 0 180 241" fill="none" xmlns="http://www.w3.org/2000/svg">
    <g filter="url(#drop-shadow)">
        <path d="M1 21H179.5V218.5L157.5 240.5H24.5L1 217V21Z" fill="#073C7011" fill-opacity="0.55" stroke="#00FFF0" stroke-opacity="0.63"/>
        <path d="M51.5 3.5L69 21H1V3.5H51.5Z" fill="black" fill-opacity="0.2"/>
        <path d="M170 16.5H175L160 1.5H155L170 16.5Z" fill="black" fill-opacity="0.2"/>
        <path d="M157 16.5H162L147 1.5H142L157 16.5Z" fill="black" fill-opacity="0.2"/>
        <path d="M145.5 16.5H150.5L135.5 1.5H130.5L145.5 16.5Z" fill="black" fill-opacity="0.2"/>
        <path d="M134 16.5H139L124 1.5H119L134 16.5Z" fill="black" fill-opacity="0.2"/>
        <path d="M122 16.5H127L112 1.5H107L122 16.5Z" fill="black" fill-opacity="0.2"/>
        <path d="M110 16.5H115L100 1.5H95L110 16.5Z" fill="black" fill-opacity="0.2"/>
        <path d="M98.5 16.5H103.5L88.5 1.5H83.5L98.5 16.5Z" fill="black" fill-opacity="0.2"/>
        <path d="M86.5 16.5H91.5L76.5 1.5H71.5L86.5 16.5Z" fill="black" fill-opacity="0.2"/>
        <path d="M74.5 16.5H79.5L64.5 1.5H59.5L74.5 16.5Z" fill="black" fill-opacity="0.2"/>
        <path d="M1 21V217L24.5 240.5H157.5L179.5 218.5V21M1 21V3.5H51.5L69 21M1 21H69M69 21H124.25H151.875H165.688H172.594H176.047H177.773H178.637H179.49M1 1H53L70 18H177.773M175 16.5H170L155 1.5H160L175 16.5ZM162 16.5H157L142 1.5H147L162 16.5ZM150.5 16.5H145.5L130.5 1.5H135.5L150.5 16.5ZM139 16.5H134L119 1.5H124L139 16.5ZM127 16.5H122L107 1.5H112L127 16.5ZM115 16.5H110L95 1.5H100L115 16.5ZM103.5 16.5H98.5L83.5 1.5H88.5L103.5 16.5ZM91.5 16.5H86.5L71.5 1.5H76.5L91.5 16.5ZM79.5 16.5H74.5L59.5 1.5H64.5L79.5 16.5Z" stroke="#00FFF0" stroke-opacity="0.63"/>
    </g>
</svg>