<svg width="180" height="241" viewBox="0 0 180 241" fill="none" xmlns="http://www.w3.org/2000/svg">
<g clip-path="url(#clip0_730_191)">
<path d="M1 21H179.5V218.5L157.5 240.5H24.5L1 217V21Z" fill="#073C70" fill-opacity="0.0366667" stroke="#00FFF0" stroke-opacity="0.63"/>
<path d="M51.5 3.5L69 21H1V3.5H51.5Z" fill="black" fill-opacity="0.2"/>
<path d="M179.5 3.5V21H111L129 3.5H179.5Z" fill="black" fill-opacity="0.2"/>
<path d="M101.5 16.5H106.5L121.5 1.5H116.5L101.5 16.5Z" fill="black" fill-opacity="0.2"/>
<path d="M86.5 16.5H94.5L108.5 1.5H99.5L90.5 12L81 1.5H71.5L86.5 16.5Z" fill="black" fill-opacity="0.2"/>
<path d="M74.5 16.5H79.5L64.5 1.5H59.5L74.5 16.5Z" fill="black" fill-opacity="0.2"/>
<path d="M1 217H0.5V217.207L0.646447 217.354L1 217ZM24.5 240.5L24.1464 240.854L24.2929 241H24.5V240.5ZM157.5 240.5V241H157.707L157.854 240.854L157.5 240.5ZM179.5 218.5L179.854 218.854L180 218.707L180 218.5L179.5 218.5ZM1 3.5V3H0.5V3.5H1ZM51.5 3.5L51.8536 3.14645L51.7071 3H51.5V3.5ZM53 1L53.3536 0.646447L53.2071 0.5H53V1ZM70 18L69.6464 18.3536L69.7929 18.5H70V18ZM111 18V18.5H111.207L111.354 18.3536L111 18ZM106.5 16.5V17H106.707L106.854 16.8536L106.5 16.5ZM101.5 16.5L101.146 16.1464L100.293 17H101.5V16.5ZM116.5 1.5V1H116.293L116.146 1.14645L116.5 1.5ZM121.5 1.5L121.854 1.85355L122.707 1H121.5V1.5ZM94.5 16.5V17H94.7071L94.8536 16.8536L94.5 16.5ZM86.5 16.5L86.1464 16.8536L86.2929 17H86.5V16.5ZM71.5 1.5V1H70.2929L71.1464 1.85355L71.5 1.5ZM109.5 1.5L109.854 1.85355L110.707 1H109.5V1.5ZM79.5 16.5V17H80.7071L79.8536 16.1464L79.5 16.5ZM74.5 16.5L74.1464 16.8536L74.2929 17H74.5V16.5ZM59.5 1.5V1H58.2929L59.1464 1.85355L59.5 1.5ZM64.5 1.5L64.8536 1.14645L64.7071 1H64.5V1.5ZM179.49 3.5H179.99V3H179.49V3.5ZM128.99 3.5V3H128.787L128.641 3.1416L128.99 3.5ZM111 21L110.651 20.6416L109.769 21.5H111V21ZM128 1V0.5H127.793L127.646 0.646447L128 1ZM90.5 12L90.1292 12.3355C90.224 12.4402 90.3587 12.5 90.5 12.5C90.6413 12.5 90.776 12.4402 90.8708 12.3355L90.5 12ZM81 1.5L81.3708 1.16454L81.2219 1H81V1.5ZM100 1.5V1H99.7781L99.6292 1.16454L100 1.5ZM0.5 21V217H1.5V21H0.5ZM0.646447 217.354L24.1464 240.854L24.8536 240.146L1.35355 216.646L0.646447 217.354ZM24.5 241H157.5V240H24.5V241ZM157.854 240.854L179.854 218.854L179.146 218.146L157.146 240.146L157.854 240.854ZM180 218.5L179.99 21L178.99 21L179 218.5L180 218.5ZM1.5 21V3.5H0.5V21H1.5ZM1 4H51.5V3H1V4ZM51.1464 3.85355L68.6464 21.3536L69.3536 20.6464L51.8536 3.14645L51.1464 3.85355ZM1 21.5H69V20.5H1V21.5ZM69 21.5H124.25V20.5H69V21.5ZM124.25 21.5H151.875V20.5H124.25V21.5ZM151.875 21.5H165.688V20.5H151.875V21.5ZM165.688 21.5H172.594V20.5H165.688V21.5ZM172.594 21.5H176.047V20.5H172.594V21.5ZM176.047 21.5H177.773V20.5H176.047V21.5ZM177.773 21.5H178.637V20.5H177.773V21.5ZM178.637 21.5H179.49V20.5H178.637V21.5ZM1 1.5H53V0.5H1V1.5ZM52.6464 1.35355L69.6464 18.3536L70.3536 17.6464L53.3536 0.646447L52.6464 1.35355ZM70 18.5H111V17.5H70V18.5ZM106.5 16H101.5V17H106.5V16ZM101.854 16.8536L116.854 1.85355L116.146 1.14645L101.146 16.1464L101.854 16.8536ZM116.5 2H121.5V1H116.5V2ZM121.146 1.14645L106.146 16.1464L106.854 16.8536L121.854 1.85355L121.146 1.14645ZM94.5 16H86.5V17H94.5V16ZM86.8536 16.1464L71.8536 1.14645L71.1464 1.85355L86.1464 16.8536L86.8536 16.1464ZM109.146 1.14645L94.1464 16.1464L94.8536 16.8536L109.854 1.85355L109.146 1.14645ZM79.5 16H74.5V17H79.5V16ZM74.8536 16.1464L59.8536 1.14645L59.1464 1.85355L74.1464 16.8536L74.8536 16.1464ZM59.5 2H64.5V1H59.5V2ZM64.1464 1.85355L79.1464 16.8536L79.8536 16.1464L64.8536 1.14645L64.1464 1.85355ZM179.99 21V3.5H178.99V21H179.99ZM179.49 3H128.99V4H179.49V3ZM128.641 3.1416L110.651 20.6416L111.349 21.3584L129.339 3.8584L128.641 3.1416ZM179.49 20.5H111V21.5H179.49V20.5ZM111.354 18.3536L128.354 1.35355L127.646 0.646447L110.646 17.6464L111.354 18.3536ZM128 1.5H179.49V0.5H128V1.5ZM71.5 2H81V1H71.5V2ZM80.6292 1.83546L90.1292 12.3355L90.8708 11.6645L81.3708 1.16454L80.6292 1.83546ZM90.8708 12.3355L100.371 1.83546L99.6292 1.16454L90.1292 11.6645L90.8708 12.3355ZM100 2H109.5V1H100V2Z" fill="#00FFF0" fill-opacity="0.63"/>
</g>
<defs>
<clipPath id="clip0_730_191">
<rect width="180" height="241" fill="white"/>
</clipPath>
</defs>
</svg>
