<svg width="363" height="742" viewBox="0 0 363 742" fill="none" xmlns="http://www.w3.org/2000/svg">
<path d="M57.9453 70.0527H59.1333H306.812H308V80.5647H306.812V70.0527H59.1333V80.5647H57.9453V70.0527Z" fill="black"/>
<path d="M54.3828 655.436H56.046V642.922H54.3828V655.436Z" fill="black"/>
<path d="M62.4609 628.405V626.402H71.0145V628.405H62.4609Z" fill="black"/>
<path d="M67.2129 621.396H62.4609V624.401H67.2129V621.396Z" fill="black"/>
<path d="M68.1641 624.401V621.396H72.4409V624.401H68.1641Z" fill="black"/>
<path d="M73.3906 624.703V621.699H78.1426V624.703H73.3906Z" fill="black"/>
<path d="M79.0938 624.401V621.396H83.8456V624.401H79.0938Z" fill="black"/>
<path d="M48.1176 598L50 599.905L48.1176 602L46 599.905L48.1176 598Z" fill="black"/>
<path d="M33 207.209V72.0554L52.008 32.0098H144" stroke="#AAAAAA"/>
<path d="M220 32.0098H310.991L329.999 72.0554V207.209" stroke="#AAAAAA"/>
<path d="M330.003 528.291V664.446L310.995 704.492H220" stroke="#AAAAAA"/>
<path d="M144 704.491H52.008L33 664.446V528.791" stroke="#AAAAAA"/>
<path d="M58.5 71H307" stroke="#AAAAAA"/>
<path d="M57.9453 71H59.1333V81.512H57.9453V71Z" stroke="#AAAAAA"/>
<path d="M307 71H308V81H307V71Z" stroke="#AAAAAA"/>
<path d="M304 77H247" stroke="#AAAAAA"/>
<path d="M304 79H297" stroke="#AAAAAA"/>
<path d="M161.299 87H85.7422" stroke="#AAAAAA"/>
<path d="M56.0469 560.5V643.422" stroke="#AAAAAA"/>
<path d="M56.046 643.422V655.936H54.3828V643.422H56.046Z" stroke="#AAAAAA"/>
<path d="M84.5588 626.402H71.0156" stroke="#AAAAAA"/>
<path d="M71.0145 626.402H62.4609V628.405H71.0145V626.402Z" stroke="#AAAAAA"/>
<path d="M58.6641 677H165.109" stroke="#AAAAAA"/>
<path d="M201.695 661.5V681.965" stroke="#AAAAAA"/>
<path d="M200.273 670.953V681.966" stroke="#AAAAAA"/>
<path d="M53.1968 599.873H49.6328" stroke="#AAAAAA"/>
<path d="M50 599.905L48.1176 598L46 599.905L48.1176 602L50 599.905Z" stroke="#AAAAAA"/>
<path d="M214.211 672.424H288.342" stroke="#AAAAAA"/>
<path d="M161.657 711.5V710H157.856L154.292 695.983H131.957H106.297H102.495H99.1686H95.6046H91.803H88.4766L89.1894 693.98H91.3278L91.803 695.983H95.6046H99.1686H102.495H106.297H131.957L132.67 693.98H154.292V695.983L157.856 710H161.657H164.509V711.5H161.657Z" fill="black"/>
<path d="M161.662 710.498V712H164.514V710.498H157.861L154.297 696.482" stroke="#AAAAAA"/>
<path d="M154.295 696.482H131.961" stroke="#AAAAAA"/>
<path d="M154.295 696.483V694.48H132.674L131.961 696.483" stroke="#AAAAAA"/>
<path d="M88.4803 696.482L87.0547 692.979" stroke="#AAAAAA"/>
<path d="M88.4766 696.483L89.1894 694.48H91.3278L91.803 696.483" stroke="#AAAAAA"/>
<path d="M88.4766 696.482H91.803" stroke="#AAAAAA"/>
<path d="M91.8047 696.482H95.6063" stroke="#AAAAAA"/>
<path d="M92.9922 694.48H94.893L95.6058 696.483" stroke="#AAAAAA"/>
<path d="M95.6094 696.482H99.1734" stroke="#AAAAAA"/>
<path d="M96.5547 694.48H98.6931L99.1683 696.483" stroke="#AAAAAA"/>
<path d="M99.1719 696.482H102.498" stroke="#AAAAAA"/>
<path d="M100.117 694.48H102.018L102.493 696.483" stroke="#AAAAAA"/>
<path d="M102.5 696.482H106.302" stroke="#AAAAAA"/>
<path d="M103.445 694.48H105.584L106.297 696.483" stroke="#AAAAAA"/>
<path d="M106.297 696.482H131.958" stroke="#AAAAAA"/>
<path d="M161.603 15.6572V17.5481H157.801L154.237 35.196H131.903H106.242H102.44H99.1139H95.5499H91.7483H88.4219L89.1347 37.7171H91.2731L91.7483 35.196H95.5499H99.1139H102.44H106.242H131.903L132.615 37.7171H154.237V35.196L157.801 17.5481H161.603H164.454V15.6572H161.603Z" fill="black"/>
<path d="M161.608 16.9202V15.0293H164.459V16.9202H157.806L154.242 34.5681" stroke="#AAAAAA"/>
<path d="M154.241 34.5684H131.906" stroke="#AAAAAA"/>
<path d="M154.241 34.5684V37.0895H132.619L131.906 34.5684" stroke="#AAAAAA"/>
<path d="M88.4256 34.5684L87 38.9804" stroke="#AAAAAA"/>
<path d="M88.4219 34.5684L89.1347 37.0895H91.2731L91.7483 34.5684" stroke="#AAAAAA"/>
<path d="M88.4219 34.5684H91.7483" stroke="#AAAAAA"/>
<path d="M91.75 34.5684H95.5516" stroke="#AAAAAA"/>
<path d="M92.9375 37.0895H94.8383L95.5511 34.5684" stroke="#AAAAAA"/>
<path d="M95.5547 34.5684H99.1187" stroke="#AAAAAA"/>
<path d="M96.5 37.0895H98.6384L99.1136 34.5684" stroke="#AAAAAA"/>
<path d="M99.1172 34.5684H102.444" stroke="#AAAAAA"/>
<path d="M100.062 37.0895H101.964L102.439 34.5684" stroke="#AAAAAA"/>
<path d="M102.445 34.5684H106.247" stroke="#AAAAAA"/>
<path d="M103.391 37.0895H105.529L106.242 34.5684" stroke="#AAAAAA"/>
<path d="M106.242 34.5684H131.903" stroke="#AAAAAA"/>
<path d="M203.848 711.522V710.02H207.651L211.216 696.004H233.558H259.228H263.031H266.359H269.924H273.727H277.055L276.342 694.002H274.202L273.727 696.004H269.924H266.359H263.031H259.228H233.558L232.845 694.002H211.216V696.004L207.651 710.02H203.848H200.996V711.522H203.848Z" fill="black"/>
<path d="M203.86 710.52V712.022H201.008V710.52H207.663L211.229 696.504" stroke="#AAAAAA"/>
<path d="M211.219 696.504H233.561" stroke="#AAAAAA"/>
<path d="M211.219 696.504V694.502H232.848L233.561 696.504" stroke="#AAAAAA"/>
<path d="M277.059 696.504L278.485 693" stroke="#AAAAAA"/>
<path d="M277.055 696.504L276.342 694.502H274.202L273.727 696.504" stroke="#AAAAAA"/>
<path d="M277.055 696.504H273.727" stroke="#AAAAAA"/>
<path d="M273.733 696.504H269.93" stroke="#AAAAAA"/>
<path d="M272.549 694.502H270.647L269.934 696.504" stroke="#AAAAAA"/>
<path d="M269.929 696.504H266.363" stroke="#AAAAAA"/>
<path d="M268.978 694.502H266.838L266.363 696.504" stroke="#AAAAAA"/>
<path d="M266.358 696.504H263.031" stroke="#AAAAAA"/>
<path d="M265.412 694.502H263.511L263.035 696.504" stroke="#AAAAAA"/>
<path d="M263.03 696.504H259.227" stroke="#AAAAAA"/>
<path d="M262.086 694.502H259.947L259.234 696.504" stroke="#AAAAAA"/>
<path d="M259.24 696.504H233.57" stroke="#AAAAAA"/>
<path d="M203.793 15.6279V17.5188H207.596L211.161 35.1667H233.504H259.174H262.977H266.304H269.869H273.672H277L276.287 37.6878H274.148L273.672 35.1667H269.869H266.304H262.977H259.174H233.504L232.791 37.6878H211.161V35.1667L207.596 17.5188H203.793H200.941V15.6279H203.793Z" fill="black"/>
<path d="M203.802 16.8909V15H200.949V16.8909H207.605L211.17 34.5388" stroke="#AAAAAA"/>
<path d="M211.164 34.5391H233.507" stroke="#AAAAAA"/>
<path d="M211.164 34.5391V37.0602H232.794L233.507 34.5391" stroke="#AAAAAA"/>
<path d="M277.004 34.5391L278.43 38.9511" stroke="#AAAAAA"/>
<path d="M277 34.5391L276.287 37.0602H274.148L273.672 34.5391" stroke="#AAAAAA"/>
<path d="M277 34.5391H273.672" stroke="#AAAAAA"/>
<path d="M273.682 34.5391H269.879" stroke="#AAAAAA"/>
<path d="M272.493 37.0602H270.592L269.879 34.5391" stroke="#AAAAAA"/>
<path d="M269.874 34.5391H266.309" stroke="#AAAAAA"/>
<path d="M268.924 37.0602H266.785L266.309 34.5391" stroke="#AAAAAA"/>
<path d="M266.305 34.5391H262.977" stroke="#AAAAAA"/>
<path d="M265.36 37.0602H263.459L262.984 34.5391" stroke="#AAAAAA"/>
<path d="M262.979 34.5391H259.176" stroke="#AAAAAA"/>
<path d="M262.032 37.0602H259.893L259.18 34.5391" stroke="#AAAAAA"/>
<path d="M259.19 34.5391H233.52" stroke="#AAAAAA"/>
<path d="M62.4609 621.396H67.2129V624.401H62.4609V621.396Z" stroke="#AAAAAA"/>
<path d="M68.1641 621.396V624.401H72.4409V621.396H68.1641Z" stroke="#AAAAAA"/>
<path d="M73.3906 621.496V624.5H78.1426V621.496H73.3906Z" stroke="#AAAAAA"/>
<path d="M79.0938 621.396V624.401H83.8456V621.396H79.0938Z" stroke="#AAAAAA"/>
<path d="M336 340.152H337.5V324.922H336V340.152Z" fill="#000011"/>
<path d="M336 340.148H337.5V323.938H336V340.148Z" fill="black" fill-opacity="0.2"/>
<path d="M336 387.307H337.5V402.537H336V387.307Z" fill="#000011"/>
<path d="M336 386.33H337.5V402.542H336V386.33Z" fill="black" fill-opacity="0.2"/>
<path d="M340 268.276V262L354 270.207V276L340 268.276Z" fill="#000011"/>
<path d="M340.5 268.437V262.051L354 270.402V276.298L340.5 268.437Z" fill="black" fill-opacity="0.2"/>
<path d="M354 286L340 278.276V272L354 280.207V286Z" fill="#000011"/>
<path d="M354 286L340 277.724V271L354 279.793V286Z" fill="black" fill-opacity="0.2"/>
<path d="M354 297L340 288.724V282L354 290.793V297Z" fill="#000011"/>
<path d="M354 296.932L340.5 289.072V282.686L354 291.037V296.932Z" fill="black" fill-opacity="0.2"/>
<path d="M354 307L340 299.276V293L354 301.207V307Z" fill="#000011"/>
<path d="M354 307.249L340.5 299.388V293.002L354 301.354V307.249Z" fill="black" fill-opacity="0.2"/>
<path d="M354 317L340 309.276V303L354 311.207V317Z" fill="#000011"/>
<path d="M354 317.565L340.5 309.705V303.318L354 311.67V317.565Z" fill="black" fill-opacity="0.2"/>
<path d="M354 327L340 319.276V313L354 321.207V327Z" fill="#000011"/>
<path d="M354 327.882L340.5 320.021V313.635L354 321.986V327.882Z" fill="black" fill-opacity="0.2"/>
<path d="M354 338L340 329.724V323L354 331.793V338Z" fill="#000011"/>
<path d="M354 338.198L340.5 330.338V323.951L354 332.303V338.198Z" fill="black" fill-opacity="0.2"/>
<path d="M354 348L340 340.276V334L354 342.207V348Z" fill="#000011"/>
<path d="M354 348.516L340.5 340.656V334.27L354 342.621V348.516Z" fill="black" fill-opacity="0.2"/>
<path d="M340 386.724L354 379V384.793L340 393V386.724Z" fill="#000011"/>
<path d="M340.5 386.329L354 378.469V384.364L340.5 392.716V386.329Z" fill="black" fill-opacity="0.2"/>
<path d="M340 397.276L354 389V395.207L340 404V397.276Z" fill="#000011"/>
<path d="M340.5 396.645L354 388.785V394.68L340.5 403.032V396.645Z" fill="black" fill-opacity="0.2"/>
<path d="M340 407.276L354 399V405.207L340 414V407.276Z" fill="#000011"/>
<path d="M340.5 406.962L354 399.102V404.997L340.5 413.348V406.962Z" fill="black" fill-opacity="0.2"/>
<path d="M340 417.724L354 410V415.793L340 424V417.724Z" fill="#000011"/>
<path d="M340.5 417.28L354 409.42V415.315L340.5 423.667V417.28Z" fill="black" fill-opacity="0.2"/>
<path d="M340 427.724L354 420V425.793L340 434V427.724Z" fill="#000011"/>
<path d="M340.5 427.597L354 419.736V425.632L340.5 433.983V427.597Z" fill="black" fill-opacity="0.2"/>
<path d="M340 438.724L354 431V436.793L340 445V438.724Z" fill="#000011"/>
<path d="M340.5 438.405L354 430.545V436.44L340.5 444.792V438.405Z" fill="black" fill-opacity="0.2"/>
<path d="M340 448.724L354 441V446.793L340 455V448.724Z" fill="#000011"/>
<path d="M340.5 448.722L354 440.861V446.757L340.5 455.108V448.722Z" fill="black" fill-opacity="0.2"/>
<path d="M340 458.724L354 451V456.793L340 465V458.724Z" fill="#000011"/>
<path d="M340.5 458.546L354 450.686V456.581L340.5 464.932V458.546Z" fill="black" fill-opacity="0.2"/>
<path d="M343.5 261.037L337.5 257.125V324.606M337.5 324.606V340.743H336V324.606H337.5ZM343.5 464.948L337.5 468.371V402.846M337.5 402.846V386.709H336V402.846H337.5ZM340.5 262.015V268.372L354 276.196V270.328L340.5 262.015ZM340.5 271.795L354 280.108V285.976L340.5 278.152V271.795ZM340.5 282.553L354 290.866V296.734L340.5 288.91V282.553ZM340.5 292.822L354 301.135V307.003L340.5 299.179V292.822ZM340.5 303.091L354 311.404V317.272L340.5 309.448V303.091ZM340.5 313.36L354 321.672V327.54L340.5 319.716V313.36ZM340.5 323.628L354 331.941V337.809L340.5 329.985V323.628ZM340.5 333.897L354 342.21V348.078L340.5 340.254V333.897ZM354 378.885L340.5 386.709V393.066L354 384.753V378.885ZM354 389.154L340.5 396.978V403.335L354 395.022V389.154ZM354 399.423L340.5 407.247V413.604L354 405.291V399.423ZM354 409.692L340.5 417.516V423.873L354 415.56V409.692ZM354 419.961L340.5 427.785V434.142L354 425.829V419.961ZM354 430.719L340.5 438.543V444.899L354 436.587V430.719ZM354 440.988L340.5 448.811V455.168L354 446.855V440.988ZM354 450.767L340.5 458.591V464.948L354 456.635V450.767Z" stroke="#AAAAAA"/>
<path d="M335 361.34L339 358.477L343 361.34V365.158L339 368.022L335 365.158V361.34Z" fill="#24C2E5" fill-opacity="0.49"/>
<path d="M339 347.025L324 355.139V371.842L339 380.433L354 371.842V355.139L339.5 347.025" stroke="#AAAAAA"/>
<path d="M331 355.616L339 350.844L347 355.616M347 370.888L339 375.661L331 370.888M339 358.48L335 361.343V365.161L339 368.025L343 365.161V361.343L339 358.48Z" stroke="#AAAAAA"/>
<path d="M27 340.027H25.5V324.797H27V340.027Z" fill="#000011"/>
<path d="M27 340.024H25.5V323.812H27V340.024Z" fill="black" fill-opacity="0.2"/>
<path d="M27 387.182H25.5V402.412H27V387.182Z" fill="#000011"/>
<path d="M27 386.205H25.5V402.417H27V386.205Z" fill="black" fill-opacity="0.2"/>
<path d="M23 268.151V261.875L9 270.082V275.875L23 268.151Z" fill="#000011"/>
<path d="M22.5 268.312V261.926L9 270.277V276.173L22.5 268.312Z" fill="black" fill-opacity="0.2"/>
<path d="M9 285.875L23 278.151V271.875L9 280.082V285.875Z" fill="#000011"/>
<path d="M9 285.875L23 277.599V270.875L9 279.668V285.875Z" fill="black" fill-opacity="0.2"/>
<path d="M9 296.875L23 288.599V281.875L9 290.668V296.875Z" fill="#000011"/>
<path d="M9 296.807L22.5 288.947V282.561L9 290.912V296.807Z" fill="black" fill-opacity="0.2"/>
<path d="M9 306.875L23 299.151V292.875L9 301.082V306.875Z" fill="#000011"/>
<path d="M9 307.124L22.5 299.263V292.877L9 301.229V307.124Z" fill="black" fill-opacity="0.2"/>
<path d="M9 316.875L23 309.151V302.875L9 311.082V316.875Z" fill="#000011"/>
<path d="M9 317.44L22.5 309.58V303.193L9 311.545V317.44Z" fill="black" fill-opacity="0.2"/>
<path d="M9 326.875L23 319.151V312.875L9 321.082V326.875Z" fill="#000011"/>
<path d="M9 327.757L22.5 319.896V313.51L9 321.861V327.757Z" fill="black" fill-opacity="0.2"/>
<path d="M9 337.875L23 329.599V322.875L9 331.668V337.875Z" fill="#000011"/>
<path d="M9 338.073L22.5 330.213V323.826L9 332.178V338.073Z" fill="black" fill-opacity="0.2"/>
<path d="M9 347.875L23 340.151V333.875L9 342.082V347.875Z" fill="#000011"/>
<path d="M9 348.391L22.5 340.531V334.145L9 342.496V348.391Z" fill="black" fill-opacity="0.2"/>
<path d="M23 386.599L9 378.875V384.668L23 392.875V386.599Z" fill="#000011"/>
<path d="M22.5 386.204L9 378.344V384.239L22.5 392.591V386.204Z" fill="black" fill-opacity="0.2"/>
<path d="M23 397.151L9 388.875V395.082L23 403.875V397.151Z" fill="#000011"/>
<path d="M22.5 396.52L9 388.66V394.555L22.5 402.907V396.52Z" fill="black" fill-opacity="0.2"/>
<path d="M23 407.151L9 398.875V405.082L23 413.875V407.151Z" fill="#000011"/>
<path d="M22.5 406.837L9 398.977V404.872L22.5 413.223V406.837Z" fill="black" fill-opacity="0.2"/>
<path d="M23 417.599L9 409.875V415.668L23 423.875V417.599Z" fill="#000011"/>
<path d="M22.5 417.155L9 409.295V415.19L22.5 423.542V417.155Z" fill="black" fill-opacity="0.2"/>
<path d="M23 427.599L9 419.875V425.668L23 433.875V427.599Z" fill="#000011"/>
<path d="M22.5 427.472L9 419.611V425.507L22.5 433.858V427.472Z" fill="black" fill-opacity="0.2"/>
<path d="M23 438.599L9 430.875V436.668L23 444.875V438.599Z" fill="#000011"/>
<path d="M22.5 438.28L9 430.42V436.315L22.5 444.667V438.28Z" fill="black" fill-opacity="0.2"/>
<path d="M23 448.599L9 440.875V446.668L23 454.875V448.599Z" fill="#000011"/>
<path d="M22.5 448.597L9 440.736V446.632L22.5 454.983V448.597Z" fill="black" fill-opacity="0.2"/>
<path d="M23 458.599L9 450.875V456.668L23 464.875V458.599Z" fill="#000011"/>
<path d="M22.5 458.421L9 450.561V456.456L22.5 464.807V458.421Z" fill="black" fill-opacity="0.2"/>
<path d="M19.5 260.912L25.5 257V324.481M25.5 324.481V340.618H27V324.481H25.5ZM19.5 464.823L25.5 468.246V402.721M25.5 402.721V386.584H27V402.721H25.5ZM22.5 261.89V268.247L9 276.071V270.203L22.5 261.89ZM22.5 271.67L9 279.983V285.851L22.5 278.027V271.67ZM22.5 282.428L9 290.741V296.609L22.5 288.785V282.428ZM22.5 292.697L9 301.01V306.878L22.5 299.054V292.697ZM22.5 302.966L9 311.279V317.147L22.5 309.323V302.966ZM22.5 313.235L9 321.547V327.415L22.5 319.591V313.235ZM22.5 323.503L9 331.816V337.684L22.5 329.86V323.503ZM22.5 333.772L9 342.085V347.953L22.5 340.129V333.772ZM9 378.76L22.5 386.584V392.941L9 384.628V378.76ZM9 389.029L22.5 396.853V403.21L9 394.897V389.029ZM9 399.298L22.5 407.122V413.479L9 405.166V399.298ZM9 409.567L22.5 417.391V423.748L9 415.435V409.567ZM9 419.836L22.5 427.66V434.017L9 425.704V419.836ZM9 430.594L22.5 438.418V444.774L9 436.462V430.594ZM9 440.863L22.5 448.686V455.043L9 446.73V440.863ZM9 450.642L22.5 458.466V464.823L9 456.51V450.642Z" stroke="#AAAAAA"/>
<path d="M28 361.215L24 358.352L20 361.215V365.033L24 367.897L28 365.033V361.215Z" fill="#24C2E5" fill-opacity="0.49"/>
<path d="M24 346.9L39 355.014V371.717L24 380.308L9 371.717V355.014L23.5 346.9" stroke="#AAAAAA"/>
<path d="M32 355.491L24 350.719L16 355.491M16 370.763L24 375.536L32 370.763M24 358.355L28 361.218V365.036L24 367.9L20 365.036V361.218L24 358.355Z" stroke="#AAAAAA"/>
<path d="M52.5 122C54.1569 122 55.5 120.621 55.5 118.92C55.5 117.219 54.1569 115.84 52.5 115.84C50.8431 115.84 49.5 117.219 49.5 118.92C49.5 120.621 50.8431 122 52.5 122Z" fill="#FF0000"/>
</svg>
