<svg width="519" height="212" viewBox="0 0 519 212" fill="none" xmlns="http://www.w3.org/2000/svg">
    <style>
        g .myGroup1 {
            animation: move 2s infinite;
        }
        g .myGroup2 {
            animation: move 2s infinite;
        }
        @keyframes move {
            0% {
                transform: translate(0, 0);
            }
            100% {
                transform: translate(0, 100);
            }
        }
    </style>
    <path d="M24.5 201.5H180L179.5 200.5H63.5V198.5H24.5V201.5Z" fill="#D9D9D9"/>
    <path d="M495.5 201.5H338.5L339.5 200.5H455.5V198.5H495.5V201.5Z" fill="#D9D9D9"/>
    <path d="M189 210.5L180 201.5M180 201.5H24.5V198.5H63.5V200.5H179.5L180 201.5ZM329.5 210.5L338.5 201.5M338.5 201.5H495.5V198.5H455.5V200.5H339.5L338.5 201.5ZM335.5 198.5L317.5 180.5H268.5M248.5 180.5H199.5L181.5 198.5" stroke="#377E7A"/>
    <path d="M250.5 206V191.5L251.5 190.5H265.5L266.5 191.5V206H250.5Z" fill="#D9D9D9" fill-opacity="0.3"/>
    <path d="M248.5 205.5V191.5L240.5 183.5H226.5L248.5 205.5Z" fill="#D9D9D9" fill-opacity="0.3"/>
    <path d="M268.5 191.5V205.5L290.5 183.5H276.5L268.5 191.5Z" fill="#D9D9D9" fill-opacity="0.3"/>
    <path d="M272 205.5L294 183.5H309.5L287.5 205.5H272Z" fill="#D9D9D9" fill-opacity="0.3"/>
    <path d="M315.5 183.5H313L291 205.5H306.5L322 190L315.5 183.5Z" fill="#D9D9D9" fill-opacity="0.3"/>
    <path d="M310.5 205.5L323.5 192.5L331 200L325.5 205.5H310.5Z" fill="#D9D9D9" fill-opacity="0.3"/>
    <path d="M245 205.5L223 183.5H208L230 205.5H245Z" fill="#D9D9D9" fill-opacity="0.3"/>
    <path d="M200.5 183.5H203.5L225.5 205.5H210.5L194.5 189.5L200.5 183.5Z" fill="#D9D9D9" fill-opacity="0.3"/>
    <path d="M185 199L192.5 191.5L206.5 205.5H191.5L185 199Z" fill="#D9D9D9" fill-opacity="0.3"/>
    <path d="M508 182.5H505.5V182V181.5H506H508.5V182.5H508Z" fill="#D9D9D9" fill-opacity="0.3"/>
    <path d="M505.5 182.5H508H508.5V181.5H506H505.5V182V183.5H509.5V87.5V36.5M250.5 191.5V206H266.5V191.5L265.5 190.5H251.5L250.5 191.5ZM248.5 191.5V205.5L226.5 183.5H240.5L248.5 191.5ZM268.5 205.5V191.5L276.5 183.5H290.5L268.5 205.5ZM294 183.5L272 205.5H287.5L309.5 183.5H294ZM313 183.5H315.5L322 190L306.5 205.5H291L313 183.5ZM323.5 192.5L310.5 205.5H325.5L331 200L323.5 192.5ZM223 183.5L245 205.5H230L208 183.5H223ZM203.5 183.5H200.5L194.5 189.5L210.5 205.5H225.5L203.5 183.5ZM192.5 191.5L185 199L191.5 205.5H206.5L192.5 191.5Z" stroke="#377E7A" stroke-opacity="0.5"/>
    <g class="myGroup1" transform="translate(0, 0)">
        <path d="M508.5 58.5V86.5" stroke="#07FFF0"/>
    </g>
    <g class="myGroup2" transform="translate(0, 0)">
        <path d="M505.5 58.5V68.5" stroke="#07FFF0"/>
    </g>
    <path d="M183.5 9.5H21.5L0.5 30.5V190.5L21.5 211.5H183.5M336.5 211.5H497.5L518.5 190.5V30.5L497.5 9.5H336.5M344 11.5H496.5L516.5 31.5V189.5L496.5 209.5H343M177 209.5H22.5L3 190V31.159L22.659 11.5H176M352 13.5H495.5L514.5 32.5V188.5L495.5 207.5H350M169 207.5H23.5L5.5 189.5V32L24 13.5H168" stroke="#377E7A"/>
    <path d="M202 10H317C317 10 316.711 8.27435 316 7.5C315.524 6.98155 314.5 6.5 313.5 6.5H206C205 6.5 203.866 6.61997 203 7.5C202.262 8.24932 202 10 202 10Z" fill="#D9D9D9"/>
    <path d="M292.5 1.5C293.096 2.13792 293.5 3.5 293.5 3.5H226C226 3.5 226.379 2.11353 227 1.5C227.748 0.761215 228.617 0.5 229.5 0.5H290C291 0.5 292.019 0.985689 292.5 1.5Z" fill="#D9D9D9"/>
    <path d="M202 10H317C317 10 316.711 8.27435 316 7.5C315.524 6.98155 314.5 6.5 313.5 6.5H206C205 6.5 203.866 6.61997 203 7.5C202.262 8.24932 202 10 202 10Z" stroke="#377E7A"/>
    <path d="M292.5 1.5C293.096 2.13792 293.5 3.5 293.5 3.5H226C226 3.5 226.379 2.11353 227 1.5C227.748 0.761215 228.617 0.5 229.5 0.5H290C291 0.5 292.019 0.985689 292.5 1.5Z" stroke="#377E7A"/>
    <path d="M317 208L202 208C202 208 202.289 209.726 203 210.5C203.476 211.018 204.5 211.5 205.5 211.5L313 211.5C314 211.5 315.134 211.38 316 210.5C316.738 209.751 317 208 317 208Z" fill="#D9D9D9" stroke="#377E7A"/>
    <circle cx="258.5" cy="180.5" r="3.5" fill="#D9D9D9"/>
</svg>