<svg width="154" height="48" viewBox="0 0 154 48" fill="none" xmlns="http://www.w3.org/2000/svg">
<rect x="1" y="1" width="152" height="45.5791" rx="22.7895" stroke="white" stroke-width="2"/>
<path d="M57.036 28.9469C56.484 28.9469 55.952 28.8829 55.44 28.7549C54.936 28.6189 54.536 28.4509 54.24 28.2509L54.864 26.9069C55.16 27.0909 55.508 27.2429 55.908 27.3629C56.316 27.4749 56.716 27.5309 57.108 27.5309C57.54 27.5309 57.844 27.4789 58.02 27.3749C58.204 27.2709 58.296 27.1269 58.296 26.9429C58.296 26.7909 58.224 26.6789 58.08 26.6069C57.944 26.5269 57.76 26.4669 57.528 26.4269C57.296 26.3869 57.04 26.3469 56.76 26.3069C56.488 26.2669 56.212 26.2149 55.932 26.1509C55.652 26.0789 55.396 25.9749 55.164 25.8389C54.932 25.7029 54.744 25.5189 54.6 25.2869C54.464 25.0549 54.396 24.7549 54.396 24.3869C54.396 23.9789 54.512 23.6189 54.744 23.3069C54.984 22.9949 55.328 22.7509 55.776 22.5749C56.224 22.3909 56.76 22.2989 57.384 22.2989C57.824 22.2989 58.272 22.3469 58.728 22.4429C59.184 22.5389 59.564 22.6789 59.868 22.8629L59.244 24.1949C58.932 24.0109 58.616 23.8869 58.296 23.8229C57.984 23.7509 57.68 23.7149 57.384 23.7149C56.968 23.7149 56.664 23.7709 56.472 23.8829C56.28 23.9949 56.184 24.1389 56.184 24.3149C56.184 24.4749 56.252 24.5949 56.388 24.6749C56.532 24.7549 56.72 24.8189 56.952 24.8669C57.184 24.9149 57.436 24.9589 57.708 24.9989C57.988 25.0309 58.268 25.0829 58.548 25.1549C58.828 25.2269 59.08 25.3309 59.304 25.4669C59.536 25.5949 59.724 25.7749 59.868 26.0069C60.012 26.2309 60.084 26.5269 60.084 26.8949C60.084 27.2949 59.964 27.6509 59.724 27.9629C59.484 28.2669 59.136 28.5069 58.68 28.6829C58.232 28.8589 57.684 28.9469 57.036 28.9469ZM61.239 28.8509V22.3949H63.111V28.8509H61.239ZM62.175 21.4949C61.831 21.4949 61.551 21.3949 61.335 21.1949C61.119 20.9949 61.011 20.7469 61.011 20.4509C61.011 20.1549 61.119 19.9069 61.335 19.7069C61.551 19.5069 61.831 19.4069 62.175 19.4069C62.519 19.4069 62.799 19.5029 63.015 19.6949C63.231 19.8789 63.339 20.1189 63.339 20.4149C63.339 20.7269 63.231 20.9869 63.015 21.1949C62.807 21.3949 62.527 21.4949 62.175 21.4949ZM67.8844 31.2749C67.2764 31.2749 66.6884 31.1989 66.1204 31.0469C65.5604 30.9029 65.0924 30.6829 64.7164 30.3869L65.4604 29.0429C65.7324 29.2669 66.0764 29.4429 66.4924 29.5709C66.9164 29.7069 67.3324 29.7749 67.7404 29.7749C68.4044 29.7749 68.8844 29.6269 69.1804 29.3309C69.4844 29.0349 69.6364 28.5949 69.6364 28.0109V27.0389L69.7564 25.4189L69.7324 23.7869V22.3949H71.5084V27.7709C71.5084 28.9709 71.1964 29.8549 70.5724 30.4229C69.9484 30.9909 69.0524 31.2749 67.8844 31.2749ZM67.5964 28.5389C66.9964 28.5389 66.4524 28.4109 65.9644 28.1549C65.4844 27.8909 65.0964 27.5269 64.8004 27.0629C64.5124 26.5909 64.3684 26.0429 64.3684 25.4189C64.3684 24.7869 64.5124 24.2389 64.8004 23.7749C65.0964 23.3029 65.4844 22.9389 65.9644 22.6829C66.4524 22.4269 66.9964 22.2989 67.5964 22.2989C68.1404 22.2989 68.6204 22.4109 69.0364 22.6349C69.4524 22.8509 69.7764 23.1909 70.0084 23.6549C70.2404 24.1109 70.3564 24.6989 70.3564 25.4189C70.3564 26.1309 70.2404 26.7189 70.0084 27.1829C69.7764 27.6389 69.4524 27.9789 69.0364 28.2029C68.6204 28.4269 68.1404 28.5389 67.5964 28.5389ZM67.9684 27.0029C68.2964 27.0029 68.5884 26.9389 68.8444 26.8109C69.1004 26.6749 69.3004 26.4869 69.4444 26.2469C69.5884 26.0069 69.6604 25.7309 69.6604 25.4189C69.6604 25.0989 69.5884 24.8229 69.4444 24.5909C69.3004 24.3509 69.1004 24.1669 68.8444 24.0389C68.5884 23.9029 68.2964 23.8349 67.9684 23.8349C67.6404 23.8349 67.3484 23.9029 67.0924 24.0389C66.8364 24.1669 66.6324 24.3509 66.4804 24.5909C66.3364 24.8229 66.2644 25.0989 66.2644 25.4189C66.2644 25.7309 66.3364 26.0069 66.4804 26.2469C66.6324 26.4869 66.8364 26.6749 67.0924 26.8109C67.3484 26.9389 67.6404 27.0029 67.9684 27.0029ZM77.1747 22.2989C77.6867 22.2989 78.1427 22.4029 78.5427 22.6109C78.9507 22.8109 79.2707 23.1229 79.5027 23.5469C79.7347 23.9629 79.8507 24.4989 79.8507 25.1549V28.8509H77.9787V25.4429C77.9787 24.9229 77.8627 24.5389 77.6307 24.2909C77.4067 24.0429 77.0867 23.9189 76.6707 23.9189C76.3747 23.9189 76.1067 23.9829 75.8667 24.1109C75.6347 24.2309 75.4507 24.4189 75.3147 24.6749C75.1867 24.9309 75.1227 25.2589 75.1227 25.6589V28.8509H73.2507V22.3949H75.0387V24.1829L74.7027 23.6429C74.9347 23.2109 75.2667 22.8789 75.6987 22.6469C76.1307 22.4149 76.6227 22.2989 77.1747 22.2989ZM87.67 28.9469C87.134 28.9469 86.654 28.8429 86.23 28.6349C85.814 28.4269 85.49 28.1109 85.258 27.6869C85.026 27.2549 84.91 26.7069 84.91 26.0429V22.3949H86.782V25.7669C86.782 26.3029 86.894 26.6989 87.118 26.9549C87.35 27.2029 87.674 27.3269 88.09 27.3269C88.378 27.3269 88.634 27.2669 88.858 27.1469C89.082 27.0189 89.258 26.8269 89.386 26.5709C89.514 26.3069 89.578 25.9789 89.578 25.5869V22.3949H91.45V28.8509H89.674V27.0749L89.998 27.5909C89.782 28.0389 89.462 28.3789 89.038 28.6109C88.622 28.8349 88.166 28.9469 87.67 28.9469ZM97.0003 28.9469C96.4563 28.9469 95.9803 28.8269 95.5723 28.5869C95.1643 28.3469 94.8443 27.9829 94.6123 27.4949C94.3883 26.9989 94.2763 26.3749 94.2763 25.6229C94.2763 24.8629 94.3843 24.2389 94.6003 23.7509C94.8163 23.2629 95.1283 22.8989 95.5363 22.6589C95.9443 22.4189 96.4323 22.2989 97.0003 22.2989C97.6083 22.2989 98.1523 22.4389 98.6323 22.7189C99.1203 22.9909 99.5043 23.3749 99.7843 23.8709C100.072 24.3669 100.216 24.9509 100.216 25.6229C100.216 26.3029 100.072 26.8909 99.7843 27.3869C99.5043 27.8829 99.1203 28.2669 98.6323 28.5389C98.1523 28.8109 97.6083 28.9469 97.0003 28.9469ZM93.1843 31.1789V22.3949H94.9723V23.7149L94.9363 25.6349L95.0563 27.5429V31.1789H93.1843ZM96.6763 27.4109C96.9883 27.4109 97.2643 27.3389 97.5043 27.1949C97.7523 27.0509 97.9483 26.8469 98.0923 26.5829C98.2443 26.3109 98.3203 25.9909 98.3203 25.6229C98.3203 25.2469 98.2443 24.9269 98.0923 24.6629C97.9483 24.3989 97.7523 24.1949 97.5043 24.0509C97.2643 23.9069 96.9883 23.8349 96.6763 23.8349C96.3643 23.8349 96.0843 23.9069 95.8363 24.0509C95.5883 24.1949 95.3923 24.3989 95.2483 24.6629C95.1043 24.9269 95.0323 25.2469 95.0323 25.6229C95.0323 25.9909 95.1043 26.3109 95.2483 26.5829C95.3923 26.8469 95.5883 27.0509 95.8363 27.1949C96.0843 27.3389 96.3643 27.4109 96.6763 27.4109Z" fill="white"/>
</svg>
