<svg width="32" height="32" viewBox="0 0 32 32" fill="none" xmlns="http://www.w3.org/2000/svg">
<path d="M16.0001 18.8C14.5001 18.8 13.2001 17.6 13.2001 16C13.2001 14.5 14.4001 13.2 16.0001 13.2C17.5001 13.2 18.8001 14.4 18.8001 16C18.8001 17.5 17.5001 18.8 16.0001 18.8Z" fill="#C0B7E8"/>
<path fill-rule="evenodd" clip-rule="evenodd" d="M19.4001 9.2H12.6001C11.8001 9.3 11.4001 9.4 11.1001 9.5C10.7001 9.6 10.4001 9.8 10.1001 10.1C9.86271 10.3374 9.75055 10.5748 9.61498 10.8617C9.57925 10.9373 9.5418 11.0166 9.50009 11.1C9.48462 11.1464 9.46676 11.1952 9.44761 11.2475C9.343 11.5333 9.20009 11.9238 9.20009 12.6V19.4C9.30009 20.2 9.40009 20.6 9.50009 20.9C9.60009 21.3 9.80009 21.6 10.1001 21.9C10.3375 22.1374 10.5749 22.2495 10.8618 22.3851C10.9375 22.4209 11.0166 22.4583 11.1001 22.5C11.1465 22.5155 11.1953 22.5333 11.2476 22.5525C11.5334 22.6571 11.9239 22.8 12.6001 22.8H19.4001C20.2001 22.7 20.6001 22.6 20.9001 22.5C21.3001 22.4 21.6001 22.2 21.9001 21.9C22.1375 21.6626 22.2496 21.4252 22.3852 21.1383C22.421 21.0626 22.4584 20.9835 22.5001 20.9C22.5156 20.8536 22.5334 20.8048 22.5526 20.7525C22.6572 20.4667 22.8001 20.0762 22.8001 19.4V12.6C22.7001 11.8 22.6001 11.4 22.5001 11.1C22.4001 10.7 22.2001 10.4 21.9001 10.1C21.6627 9.86261 21.4253 9.75045 21.1384 9.61488C21.0628 9.57918 20.9834 9.54167 20.9001 9.5C20.8537 9.48453 20.8049 9.46666 20.7526 9.44752C20.4668 9.3429 20.0763 9.2 19.4001 9.2ZM16.0001 11.7C13.6001 11.7 11.7001 13.6 11.7001 16C11.7001 18.4 13.6001 20.3 16.0001 20.3C18.4001 20.3 20.3001 18.4 20.3001 16C20.3001 13.6 18.4001 11.7 16.0001 11.7ZM21.4001 11.6C21.4001 12.1523 20.9524 12.6 20.4001 12.6C19.8478 12.6 19.4001 12.1523 19.4001 11.6C19.4001 11.0477 19.8478 10.6 20.4001 10.6C20.9524 10.6 21.4001 11.0477 21.4001 11.6Z" fill="#C0B7E8"/>
<path fill-rule="evenodd" clip-rule="evenodd" d="M9.15527e-05 16C9.15527e-05 7.16344 7.16354 0 16.0001 0C24.8366 0 32.0001 7.16344 32.0001 16C32.0001 24.8366 24.8366 32 16.0001 32C7.16354 32 9.15527e-05 24.8366 9.15527e-05 16ZM12.6001 7.7H19.4001C20.3001 7.8 20.9001 7.9 21.4001 8.1C22.0001 8.4 22.4001 8.6 22.9001 9.1C23.4001 9.6 23.7001 10.1 23.9001 10.6C24.1001 11.1 24.3001 11.7 24.3001 12.6V19.4C24.2001 20.3 24.1001 20.9 23.9001 21.4C23.6001 22 23.4001 22.4 22.9001 22.9C22.4001 23.4 21.9001 23.7 21.4001 23.9C20.9001 24.1 20.3001 24.3 19.4001 24.3H12.6001C11.7001 24.2 11.1001 24.1 10.6001 23.9C10.0001 23.6 9.60009 23.4 9.10009 22.9C8.60009 22.4 8.30009 21.9 8.10009 21.4C7.90009 20.9 7.70009 20.3 7.70009 19.4V12.6C7.80009 11.7 7.90009 11.1 8.10009 10.6C8.40009 10 8.60009 9.6 9.10009 9.1C9.60009 8.6 10.1001 8.3 10.6001 8.1C11.1001 7.9 11.7001 7.7 12.6001 7.7Z" fill="#C0B7E8"/>
</svg>
