<svg width="143" height="54" viewBox="0 0 143 54" fill="none" xmlns="http://www.w3.org/2000/svg">
<path d="M0.951969 18L8.43997 1.2H12.28L19.792 18H15.712L9.56797 3.168H11.104L4.93597 18H0.951969ZM4.69597 14.4L5.72797 11.448H14.368L15.424 14.4H4.69597ZM28.903 18.192C27.767 18.192 26.791 17.952 25.975 17.472C25.159 16.992 24.535 16.264 24.103 15.288C23.671 14.296 23.455 13.048 23.455 11.544C23.455 10.024 23.679 8.776 24.127 7.8C24.591 6.824 25.231 6.096 26.047 5.616C26.863 5.136 27.815 4.896 28.903 4.896C30.119 4.896 31.207 5.168 32.167 5.712C33.143 6.256 33.911 7.024 34.471 8.016C35.047 9.008 35.335 10.184 35.335 11.544C35.335 12.888 35.047 14.056 34.471 15.048C33.911 16.04 33.143 16.816 32.167 17.376C31.207 17.92 30.119 18.192 28.903 18.192ZM21.271 18V0.191999H25.015V7.704L24.775 11.52L24.847 15.36V18H21.271ZM28.255 15.12C28.879 15.12 29.431 14.976 29.911 14.688C30.407 14.4 30.799 13.992 31.087 13.464C31.391 12.92 31.543 12.28 31.543 11.544C31.543 10.792 31.391 10.152 31.087 9.624C30.799 9.096 30.407 8.688 29.911 8.4C29.431 8.112 28.879 7.968 28.255 7.968C27.631 7.968 27.071 8.112 26.575 8.4C26.079 8.688 25.687 9.096 25.399 9.624C25.111 10.152 24.967 10.792 24.967 11.544C24.967 12.28 25.111 12.92 25.399 13.464C25.687 13.992 26.079 14.4 26.575 14.688C27.071 14.976 27.631 15.12 28.255 15.12ZM43.3853 18.192C42.1693 18.192 41.0733 17.92 40.0973 17.376C39.1213 16.816 38.3453 16.04 37.7693 15.048C37.2093 14.056 36.9293 12.888 36.9293 11.544C36.9293 10.184 37.2093 9.008 37.7693 8.016C38.3453 7.024 39.1213 6.256 40.0973 5.712C41.0733 5.168 42.1693 4.896 43.3853 4.896C44.4733 4.896 45.4253 5.136 46.2413 5.616C47.0573 6.096 47.6893 6.824 48.1373 7.8C48.5853 8.776 48.8093 10.024 48.8093 11.544C48.8093 13.048 48.5933 14.296 48.1613 15.288C47.7293 16.264 47.1053 16.992 46.2893 17.472C45.4893 17.952 44.5213 18.192 43.3853 18.192ZM44.0333 15.12C44.6413 15.12 45.1933 14.976 45.6893 14.688C46.1853 14.4 46.5773 13.992 46.8653 13.464C47.1693 12.92 47.3213 12.28 47.3213 11.544C47.3213 10.792 47.1693 10.152 46.8653 9.624C46.5773 9.096 46.1853 8.688 45.6893 8.4C45.1933 8.112 44.6413 7.968 44.0333 7.968C43.4093 7.968 42.8493 8.112 42.3533 8.4C41.8573 8.688 41.4573 9.096 41.1533 9.624C40.8653 10.152 40.7213 10.792 40.7213 11.544C40.7213 12.28 40.8653 12.92 41.1533 13.464C41.4573 13.992 41.8573 14.4 42.3533 14.688C42.8493 14.976 43.4093 15.12 44.0333 15.12ZM47.4173 18V15.36L47.4893 11.52L47.2493 7.704V0.191999H50.9933V18H47.4173ZM60.8665 18.192C59.3945 18.192 58.0985 17.904 56.9785 17.328C55.8745 16.752 55.0185 15.968 54.4105 14.976C53.8025 13.968 53.4985 12.824 53.4985 11.544C53.4985 10.248 53.7945 9.104 54.3865 8.112C54.9945 7.104 55.8185 6.32 56.8585 5.76C57.8985 5.184 59.0745 4.896 60.3865 4.896C61.6505 4.896 62.7865 5.168 63.7945 5.712C64.8185 6.24 65.6265 7.008 66.2185 8.016C66.8105 9.008 67.1065 10.2 67.1065 11.592C67.1065 11.736 67.0985 11.904 67.0825 12.096C67.0665 12.272 67.0505 12.44 67.0345 12.6H56.5465V10.416H65.0665L63.6265 11.064C63.6265 10.392 63.4905 9.808 63.2185 9.312C62.9465 8.816 62.5705 8.432 62.0905 8.16C61.6105 7.872 61.0505 7.728 60.4105 7.728C59.7705 7.728 59.2025 7.872 58.7065 8.16C58.2265 8.432 57.8505 8.824 57.5785 9.336C57.3065 9.832 57.1705 10.424 57.1705 11.112V11.688C57.1705 12.392 57.3225 13.016 57.6265 13.56C57.9465 14.088 58.3865 14.496 58.9465 14.784C59.5225 15.056 60.1945 15.192 60.9625 15.192C61.6505 15.192 62.2505 15.088 62.7625 14.88C63.2905 14.672 63.7705 14.36 64.2025 13.944L66.1945 16.104C65.6025 16.776 64.8585 17.296 63.9625 17.664C63.0665 18.016 62.0345 18.192 60.8665 18.192ZM69.5991 18V0.191999H73.3431V18H69.5991ZM76.8178 18V0.191999H80.5618V18H76.8178ZM91.9566 18V15.48L91.7166 14.928V10.416C91.7166 9.616 91.4686 8.992 90.9726 8.544C90.4926 8.096 89.7486 7.872 88.7406 7.872C88.0526 7.872 87.3726 7.984 86.7006 8.208C86.0446 8.416 85.4846 8.704 85.0206 9.072L83.6766 6.456C84.3806 5.96 85.2286 5.576 86.2206 5.304C87.2126 5.032 88.2206 4.896 89.2446 4.896C91.2126 4.896 92.7406 5.36 93.8286 6.288C94.9166 7.216 95.4606 8.664 95.4606 10.632V18H91.9566ZM88.0206 18.192C87.0126 18.192 86.1486 18.024 85.4286 17.688C84.7086 17.336 84.1566 16.864 83.7726 16.272C83.3886 15.68 83.1966 15.016 83.1966 14.28C83.1966 13.512 83.3806 12.84 83.7486 12.264C84.1326 11.688 84.7326 11.24 85.5486 10.92C86.3646 10.584 87.4286 10.416 88.7406 10.416H92.1726V12.6H89.1486C88.2686 12.6 87.6606 12.744 87.3246 13.032C87.0046 13.32 86.8446 13.68 86.8446 14.112C86.8446 14.592 87.0286 14.976 87.3966 15.264C87.7806 15.536 88.3006 15.672 88.9566 15.672C89.5806 15.672 90.1406 15.528 90.6366 15.24C91.1326 14.936 91.4926 14.496 91.7166 13.92L92.2926 15.648C92.0206 16.48 91.5246 17.112 90.8046 17.544C90.0846 17.976 89.1566 18.192 88.0206 18.192ZM106.697 4.896C107.721 4.896 108.633 5.104 109.433 5.52C110.249 5.92 110.889 6.544 111.353 7.392C111.817 8.224 112.049 9.296 112.049 10.608V18H108.305V11.184C108.305 10.144 108.073 9.376 107.609 8.88C107.161 8.384 106.521 8.136 105.689 8.136C105.097 8.136 104.561 8.264 104.081 8.52C103.617 8.76 103.249 9.136 102.977 9.648C102.721 10.16 102.593 10.816 102.593 11.616V18H98.8491V0.191999H102.593V8.664L101.753 7.584C102.217 6.72 102.881 6.056 103.745 5.592C104.609 5.128 105.593 4.896 106.697 4.896ZM126.08 7.968H134.168V10.992H126.08V7.968ZM126.368 14.88H135.512V18H122.504V1.2H135.2V4.32H126.368V14.88ZM138.341 18V0.191999H142.085V18H138.341ZM35.653 53.192C34.517 53.192 33.541 52.952 32.725 52.472C31.909 51.992 31.285 51.264 30.853 50.288C30.421 49.296 30.205 48.048 30.205 46.544C30.205 45.024 30.429 43.776 30.877 42.8C31.341 41.824 31.981 41.096 32.797 40.616C33.613 40.136 34.565 39.896 35.653 39.896C36.869 39.896 37.957 40.168 38.917 40.712C39.893 41.256 40.661 42.024 41.221 43.016C41.797 44.008 42.085 45.184 42.085 46.544C42.085 47.888 41.797 49.056 41.221 50.048C40.661 51.04 39.893 51.816 38.917 52.376C37.957 52.92 36.869 53.192 35.653 53.192ZM28.021 53V35.192H31.765V42.704L31.525 46.52L31.597 50.36V53H28.021ZM35.005 50.12C35.629 50.12 36.181 49.976 36.661 49.688C37.157 49.4 37.549 48.992 37.837 48.464C38.141 47.92 38.293 47.28 38.293 46.544C38.293 45.792 38.141 45.152 37.837 44.624C37.549 44.096 37.157 43.688 36.661 43.4C36.181 43.112 35.629 42.968 35.005 42.968C34.381 42.968 33.821 43.112 33.325 43.4C32.829 43.688 32.437 44.096 32.149 44.624C31.861 45.152 31.717 45.792 31.717 46.544C31.717 47.28 31.861 47.92 32.149 48.464C32.437 48.992 32.829 49.4 33.325 49.688C33.821 49.976 34.381 50.12 35.005 50.12ZM50.9993 53.192C49.5273 53.192 48.2313 52.904 47.1113 52.328C46.0073 51.752 45.1513 50.968 44.5433 49.976C43.9353 48.968 43.6313 47.824 43.6313 46.544C43.6313 45.248 43.9273 44.104 44.5193 43.112C45.1273 42.104 45.9513 41.32 46.9913 40.76C48.0313 40.184 49.2073 39.896 50.5193 39.896C51.7833 39.896 52.9193 40.168 53.9273 40.712C54.9513 41.24 55.7593 42.008 56.3513 43.016C56.9433 44.008 57.2393 45.2 57.2393 46.592C57.2393 46.736 57.2313 46.904 57.2153 47.096C57.1993 47.272 57.1833 47.44 57.1673 47.6H46.6793V45.416H55.1993L53.7593 46.064C53.7593 45.392 53.6233 44.808 53.3513 44.312C53.0793 43.816 52.7033 43.432 52.2233 43.16C51.7433 42.872 51.1833 42.728 50.5433 42.728C49.9033 42.728 49.3353 42.872 48.8393 43.16C48.3593 43.432 47.9833 43.824 47.7113 44.336C47.4393 44.832 47.3033 45.424 47.3033 46.112V46.688C47.3033 47.392 47.4553 48.016 47.7593 48.56C48.0793 49.088 48.5193 49.496 49.0793 49.784C49.6553 50.056 50.3273 50.192 51.0953 50.192C51.7833 50.192 52.3833 50.088 52.8953 49.88C53.4233 49.672 53.9033 49.36 54.3353 48.944L56.3273 51.104C55.7353 51.776 54.9913 52.296 54.0953 52.664C53.1993 53.016 52.1673 53.192 50.9993 53.192ZM62.8279 50.36L62.9239 45.8L68.9479 40.088H73.4119L67.6279 45.968L65.6839 47.552L62.8279 50.36ZM59.7319 53V35.192H63.4759V53H59.7319ZM69.3559 53L64.9879 47.576L67.3399 44.672L73.8919 53H69.3559ZM78.6717 50.36L78.7677 45.8L84.7917 40.088H89.2557L83.4717 45.968L81.5277 47.552L78.6717 50.36ZM75.5757 53V35.192H79.3197V53H75.5757ZM85.1997 53L80.8317 47.576L83.1837 44.672L89.7357 53H85.1997ZM99.105 53V50.48L98.865 49.928V45.416C98.865 44.616 98.617 43.992 98.121 43.544C97.641 43.096 96.897 42.872 95.889 42.872C95.201 42.872 94.521 42.984 93.849 43.208C93.193 43.416 92.633 43.704 92.169 44.072L90.825 41.456C91.529 40.96 92.377 40.576 93.369 40.304C94.361 40.032 95.369 39.896 96.393 39.896C98.361 39.896 99.889 40.36 100.977 41.288C102.065 42.216 102.609 43.664 102.609 45.632V53H99.105ZM95.169 53.192C94.161 53.192 93.297 53.024 92.577 52.688C91.857 52.336 91.305 51.864 90.921 51.272C90.537 50.68 90.345 50.016 90.345 49.28C90.345 48.512 90.529 47.84 90.897 47.264C91.281 46.688 91.881 46.24 92.697 45.92C93.513 45.584 94.577 45.416 95.889 45.416H99.321V47.6H96.297C95.417 47.6 94.809 47.744 94.473 48.032C94.153 48.32 93.993 48.68 93.993 49.112C93.993 49.592 94.177 49.976 94.545 50.264C94.929 50.536 95.449 50.672 96.105 50.672C96.729 50.672 97.289 50.528 97.785 50.24C98.281 49.936 98.641 49.496 98.865 48.92L99.441 50.648C99.169 51.48 98.673 52.112 97.953 52.544C97.233 52.976 96.305 53.192 95.169 53.192ZM105.998 53V35.192H109.742V53H105.998ZM113.216 53V40.088H116.96V53H113.216ZM115.088 38.288C114.4 38.288 113.84 38.088 113.408 37.688C112.976 37.288 112.76 36.792 112.76 36.2C112.76 35.608 112.976 35.112 113.408 34.712C113.84 34.312 114.4 34.112 115.088 34.112C115.776 34.112 116.336 34.304 116.768 34.688C117.2 35.056 117.416 35.536 117.416 36.128C117.416 36.752 117.2 37.272 116.768 37.688C116.352 38.088 115.792 38.288 115.088 38.288Z" fill="white"/>
</svg>
