<svg width="112" height="58" viewBox="0 0 112 58" fill="none" xmlns="http://www.w3.org/2000/svg">
<path d="M16.0536 18L23.5416 1.2H27.3816L34.8936 18H30.8136L24.6696 3.168H26.2056L20.0376 18H16.0536ZM19.7976 14.4L20.8296 11.448H29.4696L30.5256 14.4H19.7976ZM37.3249 22.848C36.6529 22.848 35.9889 22.744 35.3329 22.536C34.6769 22.328 34.1409 22.04 33.7249 21.672L35.0929 19.008C35.3809 19.264 35.7089 19.464 36.0769 19.608C36.4609 19.752 36.8369 19.824 37.2049 19.824C37.7329 19.824 38.1489 19.696 38.4529 19.44C38.7729 19.2 39.0609 18.792 39.3169 18.216L39.9889 16.632L40.2769 16.224L44.9089 5.088H48.5089L42.6769 18.792C42.2609 19.832 41.7809 20.648 41.2369 21.24C40.7089 21.832 40.1169 22.248 39.4609 22.488C38.8209 22.728 38.1089 22.848 37.3249 22.848ZM39.5329 18.504L33.7729 5.088H37.6369L42.1009 15.888L39.5329 18.504ZM55.8291 18.192C54.4531 18.192 53.2291 17.904 52.1571 17.328C51.1011 16.752 50.2611 15.968 49.6371 14.976C49.0291 13.968 48.7251 12.824 48.7251 11.544C48.7251 10.248 49.0291 9.104 49.6371 8.112C50.2611 7.104 51.1011 6.32 52.1571 5.76C53.2291 5.184 54.4531 4.896 55.8291 4.896C57.1891 4.896 58.4051 5.184 59.4771 5.76C60.5491 6.32 61.3891 7.096 61.9971 8.088C62.6051 9.08 62.9091 10.232 62.9091 11.544C62.9091 12.824 62.6051 13.968 61.9971 14.976C61.3891 15.968 60.5491 16.752 59.4771 17.328C58.4051 17.904 57.1891 18.192 55.8291 18.192ZM55.8291 15.12C56.4531 15.12 57.0131 14.976 57.5091 14.688C58.0051 14.4 58.3971 13.992 58.6851 13.464C58.9731 12.92 59.1171 12.28 59.1171 11.544C59.1171 10.792 58.9731 10.152 58.6851 9.624C58.3971 9.096 58.0051 8.688 57.5091 8.4C57.0131 8.112 56.4531 7.968 55.8291 7.968C55.2051 7.968 54.6451 8.112 54.1491 8.4C53.6531 8.688 53.2531 9.096 52.9491 9.624C52.6611 10.152 52.5171 10.792 52.5171 11.544C52.5171 12.28 52.6611 12.92 52.9491 13.464C53.2531 13.992 53.6531 14.4 54.1491 14.688C54.6451 14.976 55.2051 15.12 55.8291 15.12ZM70.8596 18.192C69.7876 18.192 68.8276 17.984 67.9796 17.568C67.1476 17.152 66.4996 16.52 66.0356 15.672C65.5716 14.808 65.3396 13.712 65.3396 12.384V5.088H69.0836V11.832C69.0836 12.904 69.3076 13.696 69.7556 14.208C70.2196 14.704 70.8676 14.952 71.6996 14.952C72.2756 14.952 72.7876 14.832 73.2356 14.592C73.6836 14.336 74.0356 13.952 74.2916 13.44C74.5476 12.912 74.6756 12.256 74.6756 11.472V5.088H78.4196V18H74.8676V14.448L75.5156 15.48C75.0836 16.376 74.4436 17.056 73.5956 17.52C72.7636 17.968 71.8516 18.192 70.8596 18.192ZM89.5202 18.192C88.3842 18.192 87.4082 17.952 86.5922 17.472C85.7762 16.992 85.1522 16.264 84.7202 15.288C84.2882 14.296 84.0722 13.048 84.0722 11.544C84.0722 10.024 84.2962 8.776 84.7442 7.8C85.2082 6.824 85.8482 6.096 86.6642 5.616C87.4802 5.136 88.4322 4.896 89.5202 4.896C90.7362 4.896 91.8242 5.168 92.7842 5.712C93.7602 6.256 94.5282 7.024 95.0882 8.016C95.6642 9.008 95.9522 10.184 95.9522 11.544C95.9522 12.888 95.6642 14.056 95.0882 15.048C94.5282 16.04 93.7602 16.816 92.7842 17.376C91.8242 17.92 90.7362 18.192 89.5202 18.192ZM81.8882 18V0.191999H85.6322V7.704L85.3922 11.52L85.4642 15.36V18H81.8882ZM88.8722 15.12C89.4962 15.12 90.0482 14.976 90.5282 14.688C91.0242 14.4 91.4162 13.992 91.7042 13.464C92.0082 12.92 92.1602 12.28 92.1602 11.544C92.1602 10.792 92.0082 10.152 91.7042 9.624C91.4162 9.096 91.0242 8.688 90.5282 8.4C90.0482 8.112 89.4962 7.968 88.8722 7.968C88.2482 7.968 87.6882 8.112 87.1922 8.4C86.6962 8.688 86.3042 9.096 86.0162 9.624C85.7282 10.152 85.5842 10.792 85.5842 11.544C85.5842 12.28 85.7282 12.92 86.0162 13.464C86.3042 13.992 86.6962 14.4 87.1922 14.688C87.6882 14.976 88.2482 15.12 88.8722 15.12ZM0.104343 53L7.59234 36.2H11.4323L18.9443 53H14.8643L8.72034 38.168H10.2563L4.08834 53H0.104343ZM3.84834 49.4L4.88034 46.448H13.5203L14.5763 49.4H3.84834ZM36.9593 39.896C37.9833 39.896 38.8873 40.104 39.6713 40.52C40.4713 40.92 41.0953 41.544 41.5433 42.392C42.0073 43.224 42.2393 44.296 42.2393 45.608V53H38.4953V46.184C38.4953 45.144 38.2793 44.376 37.8473 43.88C37.4153 43.384 36.8073 43.136 36.0233 43.136C35.4793 43.136 34.9913 43.264 34.5593 43.52C34.1273 43.76 33.7913 44.128 33.5513 44.624C33.3113 45.12 33.1913 45.752 33.1913 46.52V53H29.4473V46.184C29.4473 45.144 29.2313 44.376 28.7993 43.88C28.3833 43.384 27.7833 43.136 26.9993 43.136C26.4553 43.136 25.9673 43.264 25.5353 43.52C25.1033 43.76 24.7673 44.128 24.5273 44.624C24.2873 45.12 24.1673 45.752 24.1673 46.52V53H20.4233V40.088H23.9993V43.616L23.3273 42.584C23.7753 41.704 24.4073 41.04 25.2233 40.592C26.0553 40.128 26.9993 39.896 28.0553 39.896C29.2393 39.896 30.2713 40.2 31.1513 40.808C32.0473 41.4 32.6393 42.312 32.9273 43.544L31.6073 43.184C32.0393 42.176 32.7273 41.376 33.6713 40.784C34.6313 40.192 35.7273 39.896 36.9593 39.896ZM53.5152 53V50.48L53.2752 49.928V45.416C53.2752 44.616 53.0272 43.992 52.5312 43.544C52.0512 43.096 51.3072 42.872 50.2992 42.872C49.6112 42.872 48.9312 42.984 48.2592 43.208C47.6032 43.416 47.0432 43.704 46.5792 44.072L45.2352 41.456C45.9392 40.96 46.7872 40.576 47.7792 40.304C48.7712 40.032 49.7792 39.896 50.8032 39.896C52.7712 39.896 54.2992 40.36 55.3872 41.288C56.4752 42.216 57.0192 43.664 57.0192 45.632V53H53.5152ZM49.5792 53.192C48.5712 53.192 47.7072 53.024 46.9872 52.688C46.2672 52.336 45.7152 51.864 45.3312 51.272C44.9472 50.68 44.7552 50.016 44.7552 49.28C44.7552 48.512 44.9392 47.84 45.3072 47.264C45.6912 46.688 46.2912 46.24 47.1072 45.92C47.9232 45.584 48.9872 45.416 50.2992 45.416H53.7312V47.6H50.7072C49.8272 47.6 49.2192 47.744 48.8832 48.032C48.5632 48.32 48.4032 48.68 48.4032 49.112C48.4032 49.592 48.5872 49.976 48.9552 50.264C49.3392 50.536 49.8592 50.672 50.5152 50.672C51.1392 50.672 51.6992 50.528 52.1952 50.24C52.6912 49.936 53.0512 49.496 53.2752 48.92L53.8512 50.648C53.5792 51.48 53.0832 52.112 52.3632 52.544C51.6432 52.976 50.7152 53.192 49.5792 53.192ZM59.4477 57.848C58.8717 57.848 58.3197 57.784 57.7917 57.656C57.2637 57.544 56.8157 57.368 56.4477 57.128L57.4557 54.416C57.8877 54.72 58.4157 54.872 59.0397 54.872C59.5037 54.872 59.8717 54.712 60.1437 54.392C60.4317 54.088 60.5757 53.624 60.5757 53V40.088H64.3197V52.976C64.3197 54.464 63.8957 55.648 63.0477 56.528C62.1997 57.408 60.9997 57.848 59.4477 57.848ZM62.4477 38.288C61.7597 38.288 61.1997 38.088 60.7677 37.688C60.3357 37.288 60.1197 36.792 60.1197 36.2C60.1197 35.608 60.3357 35.112 60.7677 34.712C61.1997 34.312 61.7597 34.112 62.4477 34.112C63.1357 34.112 63.6957 34.304 64.1277 34.688C64.5597 35.056 64.7757 35.536 64.7757 36.128C64.7757 36.752 64.5597 37.272 64.1277 37.688C63.7117 38.088 63.1517 38.288 62.4477 38.288ZM75.6871 53V50.48L75.4471 49.928V45.416C75.4471 44.616 75.1991 43.992 74.7031 43.544C74.2231 43.096 73.4791 42.872 72.4711 42.872C71.7831 42.872 71.1031 42.984 70.4311 43.208C69.7751 43.416 69.2151 43.704 68.7511 44.072L67.4071 41.456C68.1111 40.96 68.9591 40.576 69.9511 40.304C70.9431 40.032 71.9511 39.896 72.9751 39.896C74.9431 39.896 76.4711 40.36 77.5591 41.288C78.6471 42.216 79.1911 43.664 79.1911 45.632V53H75.6871ZM71.7511 53.192C70.7431 53.192 69.8791 53.024 69.1591 52.688C68.4391 52.336 67.8871 51.864 67.5031 51.272C67.1191 50.68 66.9271 50.016 66.9271 49.28C66.9271 48.512 67.1111 47.84 67.4791 47.264C67.8631 46.688 68.4631 46.24 69.2791 45.92C70.0951 45.584 71.1591 45.416 72.4711 45.416H75.9031V47.6H72.8791C71.9991 47.6 71.3911 47.744 71.0551 48.032C70.7351 48.32 70.5751 48.68 70.5751 49.112C70.5751 49.592 70.7591 49.976 71.1271 50.264C71.5111 50.536 72.0311 50.672 72.6871 50.672C73.3111 50.672 73.8711 50.528 74.3671 50.24C74.8631 49.936 75.2231 49.496 75.4471 48.92L76.0231 50.648C75.7511 51.48 75.2551 52.112 74.5351 52.544C73.8151 52.976 72.8871 53.192 71.7511 53.192ZM90.4276 39.896C91.4516 39.896 92.3636 40.104 93.1636 40.52C93.9796 40.92 94.6196 41.544 95.0836 42.392C95.5476 43.224 95.7796 44.296 95.7796 45.608V53H92.0356V46.184C92.0356 45.144 91.8036 44.376 91.3396 43.88C90.8916 43.384 90.2516 43.136 89.4196 43.136C88.8276 43.136 88.2916 43.264 87.8116 43.52C87.3476 43.76 86.9796 44.136 86.7076 44.648C86.4516 45.16 86.3236 45.816 86.3236 46.616V53H82.5796V40.088H86.1556V43.664L85.4836 42.584C85.9476 41.72 86.6116 41.056 87.4756 40.592C88.3396 40.128 89.3236 39.896 90.4276 39.896ZM105.675 53.192C104.203 53.192 102.907 52.904 101.787 52.328C100.683 51.752 99.8271 50.968 99.2191 49.976C98.6111 48.968 98.3071 47.824 98.3071 46.544C98.3071 45.248 98.6031 44.104 99.1951 43.112C99.8031 42.104 100.627 41.32 101.667 40.76C102.707 40.184 103.883 39.896 105.195 39.896C106.459 39.896 107.595 40.168 108.603 40.712C109.627 41.24 110.435 42.008 111.027 43.016C111.619 44.008 111.915 45.2 111.915 46.592C111.915 46.736 111.907 46.904 111.891 47.096C111.875 47.272 111.859 47.44 111.843 47.6H101.355V45.416H109.875L108.435 46.064C108.435 45.392 108.299 44.808 108.027 44.312C107.755 43.816 107.379 43.432 106.899 43.16C106.419 42.872 105.859 42.728 105.219 42.728C104.579 42.728 104.011 42.872 103.515 43.16C103.035 43.432 102.659 43.824 102.387 44.336C102.115 44.832 101.979 45.424 101.979 46.112V46.688C101.979 47.392 102.131 48.016 102.435 48.56C102.755 49.088 103.195 49.496 103.755 49.784C104.331 50.056 105.003 50.192 105.771 50.192C106.459 50.192 107.059 50.088 107.571 49.88C108.099 49.672 108.579 49.36 109.011 48.944L111.003 51.104C110.411 51.776 109.667 52.296 108.771 52.664C107.875 53.016 106.843 53.192 105.675 53.192Z" fill="white"/>
</svg>
