<svg width="32" height="32" viewBox="0 0 32 32" fill="none" xmlns="http://www.w3.org/2000/svg">
<path fill-rule="evenodd" clip-rule="evenodd" d="M9.15527e-05 16C9.15527e-05 7.16344 7.16354 0 16.0001 0C24.8366 0 32.0001 7.16344 32.0001 16C32.0001 24.8366 24.8366 32 16.0001 32C7.16354 32 9.15527e-05 24.8366 9.15527e-05 16ZM22.1001 11.5C22.8001 11.4 23.4001 11.3 24.0001 11C23.6001 11.7 23.0001 12.3 22.3001 12.7C22.5001 17.4 19.1001 22.5 13.0001 22.5C11.2001 22.5 9.50009 21.9 8.00009 21C9.70009 21.2 11.5001 20.7 12.7001 19.8C11.2001 19.8 10.0001 18.8 9.60009 17.5C10.1001 17.6 10.6001 17.5 11.1001 17.4C9.60009 17 8.50009 15.6 8.50009 14.1C9.00009 14.3 9.50009 14.5 10.0001 14.5C8.60009 13.5 8.10009 11.6 9.00009 10.1C10.7001 12.1 13.1001 13.4 15.8001 13.5C15.3001 11.5 16.9001 9.5 19.0001 9.5C19.9001 9.5 20.8001 9.9 21.4001 10.5C22.2001 10.3 22.9001 10.1 23.5001 9.7C23.3001 10.5 22.8001 11.1 22.1001 11.5Z" fill="#C0B7E8"/>
</svg>
