<svg width="32" height="32" viewBox="0 0 32 32" fill="none" xmlns="http://www.w3.org/2000/svg">
<path d="M18.6001 16L14.4001 13.6V18.4L18.6001 16Z" fill="#C0B7E8"/>
<path fill-rule="evenodd" clip-rule="evenodd" d="M9.15527e-05 16C9.15527e-05 7.16344 7.16354 0 16.0001 0C24.8366 0 32.0001 7.16344 32.0001 16C32.0001 24.8366 24.8366 32 16.0001 32C7.16354 32 9.15527e-05 24.8366 9.15527e-05 16ZM22.2001 10.7C22.9001 10.9 23.4001 11.4 23.6001 12.1C24.0001 13.4 24.0001 16 24.0001 16C24.0001 16 24.0001 18.6 23.7001 19.9C23.5001 20.6 23.0001 21.1 22.3001 21.3C21.0001 21.6 16.0001 21.6 16.0001 21.6C16.0001 21.6 10.9001 21.6 9.70009 21.3C9.00009 21.1 8.50009 20.6 8.30009 19.9C8.00009 18.6 8.00009 16 8.00009 16C8.00009 16 8.00009 13.4 8.20009 12.1C8.40009 11.4 8.9001 10.9 9.6001 10.7C10.9001 10.4 15.9001 10.4 15.9001 10.4C15.9001 10.4 21.0001 10.4 22.2001 10.7Z" fill="#C0B7E8"/>
</svg>
