<svg width="294" height="111" viewBox="0 0 294 111" fill="none" xmlns="http://www.w3.org/2000/svg">
<path d="M20.9121 1.23333L0 22.2V45.6333L4.9205 50.5667V62.9L0 67.8333V91.2667L19.682 111H50.4351L55.3556 106.067H77.4979L79.3431 107.917L80.2657 108.842L81.1637 109.767L82.3938 102.367L81.1883 101.133L79.9582 99.9L77.4979 97.4333H55.3556L50.4351 102.367H23.3724L8.61088 87.5667V69.0667L13.5314 64.1333V44.4L8.61088 39.4667V24.6667L24.6025 8.63333H47.9749L57.8159 18.5H130.393L140.234 8.63333H211.582L216.502 13.5667H241.105L246.025 8.63333H270.628L286.619 24.6667V40.7L282.929 44.4V66.6L286.619 70.3V86.3333L270.628 102.367H246.025L236.184 92.5H164.837L154.996 102.367H82.4184L81.1883 109.767H157.456L167.297 99.9H232.494L242.335 109.767H274.318L294 90.0333V67.8333L290.31 64.1333V46.8667L294 43.1667V20.9667L274.318 1.23333H243.565L238.644 6.16667H218.962L214.042 1.23333H139.004L129.163 11.1H60.2762L50.4351 1.23333H20.9121Z" fill="#00FEFF"/>
<path d="M62.7364 6.16667H125.473L131.623 0H56.5858L62.7364 6.16667Z" fill="#00FEFF"/>
<path d="M236.184 111L230.033 104.833H169.757L163.607 111H236.184Z" fill="#00FEFF"/>
<path d="M270.628 24.6667H24.6025L20.9121 28.357V82.5667L24.6025 86.257H270.628L274.318 82.5667V28.357L270.628 24.6667Z" fill="#00FEFF30"/>
</svg>
