<svg width="277" height="363" viewBox="0 0 277 363" fill="none" xmlns="http://www.w3.org/2000/svg">
<path d="M0 106.5V32.5L5 40V80.5L3 82.5V104.5L11 113V191L3 199V229L6 232V250L3 253V279L6.5 282.5V324L38 355.5H64.5L71.5 348.5H204.5L211.5 355.5H239L270.5 324V283L274 279.5V254L271 251V232.5L274 229.5V199.5L266 191.5V113L274 105V83L272 81V40.5L238.5 7H207L204 10H72L69 7H38L5.005 39.99L0.01 32.49L32.5 0H67L73.5 6.5H203L209 0.5H244L277 33.5V107L269 115V190L277 198V231L274 234V249.5L277 252.5V329L244 362H209L202.5 355.5H74L67.5 362H32.5L0 329.5V252L3 249V234L0 231V197.5L8 189.5V114.5L0 106.5Z" fill="#00FEFF"/>
<path d="M73 0L76 3H199.5L202.5 0H73Z" fill="#00FEFF"/>
<path d="M275.5 113L272 116.5V188.5L275.5 192V113Z" fill="#00FEFF"/>
<path d="M200.5 359.5H75L72 362.5H203.5L200.5 359.5Z" fill="#00FEFF"/>
<path d="M5 116.5L1 112.5V191.5L5 187.5V116.5Z" fill="#00FEFF"/>
<path d="M234 22H43L22 43V319.5L43 340.5H234L255 319.5V43L234 22Z" fill="#00FEFF30"/>
</svg>
