<svg width="30" height="30" viewBox="0 0 30 30" fill="none" xmlns="http://www.w3.org/2000/svg">
<g clip-path="url(#clip0_717_191)">
<path d="M7.5 3C6.75 3 5.5 4 5.5 5V25C5.5 26 6.5 27 7.5 27H23.5C24.5 27 25.5 26 25.5 25V5C25.5 4 24.5 3 23.5 3H7.5Z" stroke="#00FFF0" stroke-width="3.78562" stroke-linejoin="round"/>
<path d="M17.5625 18.5C17.5625 18.75 17.5 18.875 17.3125 19L8.5 25C7.90202 24.8929 7.49936 24.2498 7.5 24V5.5C7.5 5.25 7.75 5 8 5L17.1875 4.25C17.4375 4.25 17.625 4.4375 17.625 4.6875V18.5625L17.5625 18.5Z" fill="url(#paint0_linear_717_191)"/>
<path d="M15.9375 9.4375C15.9375 10.1875 15.3125 10.8125 14.5625 10.8125C13.8125 10.8125 13.1875 10.1875 13.1875 9.4375C13.1875 8.6875 13.8125 8.0625 14.5625 8.0625C15.3125 8.0625 15.9375 8.6875 15.9375 9.4375Z" fill="black"/>
<path d="M8 7.68731C7.625 7.87481 8 8.12481 8 8.49981C8 8.49981 8 9.43731 8 10.4998C6.75 10.4998 3.5 10.4998 3.5 10.4998C2.5 10.4998 1.5 11.4998 1.5 12.4998V17.4998C1.5 18.4998 2.5 19.4998 3.5 19.4998C3.5 19.4998 6.75 19.4998 8 19.4998C8 20.4998 8 20.9998 8 20.9998C8 21.4373 7.625 21.8123 8 21.9373C8.375 22.1248 8.8125 21.9998 9.125 21.6873L15.125 15.6873C15.75 15.0623 15.5625 14.3748 15.125 13.9998L9.125 7.93731C8.8125 7.62481 8.375 7.56231 7.9375 7.68731H8Z" fill="#B82C00"/>
<path d="M9 8.50004C9 8.37504 9.125 8.37504 9.1875 8.43754L14.5 14.625C14.6875 14.8125 14.625 14.875 14.5 15L9.125 21.0625C9.0625 21.125 9 21.0625 9 21V17.5H4C4 17.5 3.5 17.5 3.5 17V13C3.5 12.5 4 12.5 4 12.5H9V8.50004Z" fill="#FF0000"/>
</g>
<defs>
<linearGradient id="paint0_linear_717_191" x1="13" y1="11" x2="20.5" y2="17.5" gradientUnits="userSpaceOnUse">
<stop stop-color="#00C9BD"/>
<stop offset="1" stop-color="#00635D"/>
</linearGradient>
<clipPath id="clip0_717_191">
<rect width="30" height="30" fill="white"/>
</clipPath>
</defs>
</svg>
